<svg width="559" height="183" viewBox="0 0 559 183" fill="none" xmlns="http://www.w3.org/2000/svg">
<path d="M28.9748 60.4583C22.8322 69.3369 19.25 80.014 19.25 91.5C19.25 122.359 45.1056 147.375 77 147.375C108.895 147.375 134.75 122.359 134.75 91.5C134.75 60.6411 108.895 35.625 77 35.625V54.25M77 91.5L51.3333 66.6667" stroke="black" stroke-width="15" stroke-linecap="round" stroke-linejoin="round"/>
<path fill-rule="evenodd" clip-rule="evenodd" d="M317.812 91.4609C317.812 81.9907 325.499 74.3047 334.969 74.3047C344.439 74.3047 352.125 81.9907 352.125 91.4609C352.125 100.931 344.439 108.617 334.969 108.617C325.499 108.617 317.812 100.931 317.812 91.4609ZM266.344 91.4609C266.344 81.9907 274.03 74.3047 283.5 74.3047C292.97 74.3047 300.656 81.9907 300.656 91.4609C300.656 100.931 292.97 108.617 283.5 108.617C274.03 108.617 266.344 100.931 266.344 91.4609ZM214.875 91.4609C214.875 81.9907 222.561 74.3047 232.031 74.3047C241.501 74.3047 249.188 81.9907 249.188 91.4609C249.188 100.931 241.501 108.617 232.031 108.617C222.561 108.617 214.875 100.931 214.875 91.4609Z" fill="black"/>
<path fill-rule="evenodd" clip-rule="evenodd" d="M510.89 21.3195L433.424 27.0412C427.174 27.5816 425 31.6653 425 36.5597V121.483C425 125.295 426.354 128.557 429.62 132.916L447.83 156.594C450.822 160.406 453.542 161.224 459.254 160.952L549.214 155.506C556.82 154.965 559 151.423 559 145.436V49.8973C559 46.8034 557.778 45.9116 554.18 43.2712L528.834 25.4018C522.852 21.0521 520.406 20.5019 510.89 21.3181V21.3195ZM461.288 48.3335C453.942 48.8277 452.276 48.9397 448.104 45.5476L437.498 37.1113C436.42 36.0193 436.962 34.6571 439.678 34.3855L514.148 28.9438C520.402 28.3978 523.658 30.5776 526.104 32.4815L538.876 41.7354C539.422 42.0112 540.78 43.6394 539.147 43.6394L462.24 48.2691L461.288 48.3335ZM452.724 144.62V63.515C452.724 59.973 453.812 58.3392 457.068 58.0648L545.4 52.8933C548.396 52.6231 549.75 54.5271 549.75 58.0634V138.628C549.75 142.17 549.204 145.166 544.314 145.436L459.786 150.336C454.896 150.607 452.726 148.978 452.726 144.62H452.724ZM536.165 67.8633C536.706 70.3133 536.165 72.7633 533.715 73.0433L529.641 73.851V133.733C526.103 135.637 522.846 136.724 520.125 136.724C515.775 136.724 514.688 135.362 511.431 131.283L484.789 89.3671V129.92L493.217 131.829C493.217 131.829 493.217 136.728 486.417 136.728L467.671 137.816C467.125 136.724 467.671 134.004 469.571 133.462L474.466 132.104V78.485L467.672 77.9348C467.126 75.4848 468.484 71.9471 472.292 71.6727L492.406 70.3189L520.126 112.776V75.2146L513.06 74.4026C512.514 71.4025 514.688 69.2227 517.404 68.9567L536.165 67.8633Z" fill="black"/>
</svg>
