<svg width="638" height="187" viewBox="0 0 638 187" fill="none" xmlns="http://www.w3.org/2000/svg">
<mask id="path-1-outside-1_371_3" maskUnits="userSpaceOnUse" x="217" y="65" width="403" height="88" fill="black">
<rect fill="white" x="217" y="65" width="403" height="88"/>
<path d="M218.969 66.75H237.484C249.828 66.75 257.781 70.4062 261.344 77.7188C262.625 80.4062 263.266 83.5938 263.266 87.2812C263.266 90.9688 262.609 94.125 261.297 96.75C259.984 99.375 258.219 101.531 256 103.219C251.688 106.469 245.922 108.094 238.703 108.094H228.344V132H218.969V66.75ZM236.875 100.594C242.531 100.594 246.719 99.5 249.438 97.3125C252.156 95.125 253.516 91.7188 253.516 87.0938C253.516 80.9375 250.656 76.9688 244.938 75.1875C242.938 74.5625 240.516 74.25 237.672 74.25H228.344V100.594H236.875ZM271.188 107.719C271.188 100.125 273.609 93.9688 278.453 89.25C282.984 84.8438 288.594 82.6406 295.281 82.6406C301.844 82.6406 307.328 84.8438 311.734 89.25C316.422 93.9375 318.766 100.094 318.766 107.719C318.766 115.312 316.406 121.438 311.688 126.094C307.219 130.531 301.734 132.75 295.234 132.75C288.641 132.75 283.047 130.531 278.453 126.094C273.609 121.438 271.188 115.312 271.188 107.719ZM280.938 107.719C280.938 115.719 283.5 121.156 288.625 124.031C290.438 125.031 292.609 125.531 295.141 125.531C297.672 125.531 299.812 125.031 301.562 124.031C303.312 123 304.75 121.656 305.875 120C307.969 116.812 309.016 112.719 309.016 107.719C309.016 99.7812 306.5 94.3438 301.469 91.4062C299.719 90.375 297.625 89.8594 295.188 89.8594C292.75 89.8594 290.625 90.375 288.812 91.4062C287.031 92.4062 285.562 93.7344 284.406 95.3906C282.094 98.6406 280.938 102.75 280.938 107.719ZM339.859 95.6719L339.906 132H330.531V83.625H339.156L339.812 88.9219C343.25 86.0469 347.25 84.1719 351.812 83.2969C353.281 83.0156 354.719 82.875 356.125 82.875C361.969 82.875 366.375 85.3438 369.344 90.2812C374.781 85.3438 380.469 82.875 386.406 82.875C392.281 82.875 396.562 84.6406 399.25 88.1719C401.938 91.7656 403.281 97.7031 403.281 105.984V132H393.906V106.312C393.906 98.1875 391.953 93.3281 388.047 91.7344C386.734 91.2031 385.203 90.9375 383.453 90.9375C379.266 90.9375 375.422 92.4375 371.922 95.4375V132H362.547V105.938C362.547 100.375 361.719 96.4688 360.062 94.2188C358.469 92.0312 355.609 90.9375 351.484 90.9375C347.391 90.9375 343.516 92.5156 339.859 95.6719ZM415.188 107.719C415.188 100.125 417.609 93.9688 422.453 89.25C426.984 84.8438 432.594 82.6406 439.281 82.6406C445.844 82.6406 451.328 84.8438 455.734 89.25C460.422 93.9375 462.766 100.094 462.766 107.719C462.766 115.312 460.406 121.438 455.688 126.094C451.219 130.531 445.734 132.75 439.234 132.75C432.641 132.75 427.047 130.531 422.453 126.094C417.609 121.438 415.188 115.312 415.188 107.719ZM424.938 107.719C424.938 115.719 427.5 121.156 432.625 124.031C434.438 125.031 436.609 125.531 439.141 125.531C441.672 125.531 443.812 125.031 445.562 124.031C447.312 123 448.75 121.656 449.875 120C451.969 116.812 453.016 112.719 453.016 107.719C453.016 99.7812 450.5 94.3438 445.469 91.4062C443.719 90.375 441.625 89.8594 439.188 89.8594C436.75 89.8594 434.625 90.375 432.812 91.4062C431.031 92.4062 429.562 93.7344 428.406 95.3906C426.094 98.6406 424.938 102.75 424.938 107.719ZM474.25 66.75H483.625V123.75H511.562V132H474.25V66.75ZM519.25 107.719C519.25 100.125 521.672 93.9688 526.516 89.25C531.047 84.8438 536.656 82.6406 543.344 82.6406C549.906 82.6406 555.391 84.8438 559.797 89.25C564.484 93.9375 566.828 100.094 566.828 107.719C566.828 115.312 564.469 121.438 559.75 126.094C555.281 130.531 549.797 132.75 543.297 132.75C536.703 132.75 531.109 130.531 526.516 126.094C521.672 121.438 519.25 115.312 519.25 107.719ZM529 107.719C529 115.719 531.562 121.156 536.688 124.031C538.5 125.031 540.672 125.531 543.203 125.531C545.734 125.531 547.875 125.031 549.625 124.031C551.375 123 552.812 121.656 553.938 120C556.031 116.812 557.078 112.719 557.078 107.719C557.078 99.7812 554.562 94.3438 549.531 91.4062C547.781 90.375 545.688 89.8594 543.25 89.8594C540.812 89.8594 538.688 90.375 536.875 91.4062C535.094 92.4062 533.625 93.7344 532.469 95.3906C530.156 98.6406 529 102.75 529 107.719ZM605.875 150.469C603.156 151.156 599.656 151.5 595.375 151.5C591.125 151.5 588.016 151.188 586.047 150.562V142.219C588.516 143.281 591.531 143.812 595.094 143.812C598.688 143.844 601.328 143.609 603.016 143.109C604.703 142.609 606.031 141.797 607 140.672C608.75 138.641 609.625 134.969 609.625 129.656V127.172C607.25 129.547 604.125 131.203 600.25 132.141C598.688 132.516 597.125 132.703 595.562 132.703C594 132.703 592.469 132.531 590.969 132.188C589.5 131.844 588.031 131.297 586.562 130.547C585.094 129.766 583.688 128.766 582.344 127.547C581 126.297 579.812 124.75 578.781 122.906C576.469 118.906 575.312 113.984 575.312 108.141C575.25 102.734 576.812 97.9844 580 93.8906C582.75 90.3281 586.531 87.5625 591.344 85.5938C595.719 83.7812 600.453 82.875 605.547 82.875C610.641 82.875 615.125 83.125 619 83.625V129.656C619 141.344 614.625 148.281 605.875 150.469ZM609.625 90.4688C607.625 90.2188 605.656 90.0938 603.719 90.0938C601.781 90.0938 599.609 90.4531 597.203 91.1719C594.797 91.8906 592.688 92.9844 590.875 94.4531C586.906 97.6719 584.922 102.234 584.922 108.141C584.922 114.547 586.469 119.219 589.562 122.156C591.875 124.375 594.703 125.484 598.047 125.484C602.078 125.484 605.469 124.062 608.219 121.219C608.875 120.5 609.344 119.859 609.625 119.297V90.4688Z"/>
</mask>
<path d="M218.969 66.75H237.484C249.828 66.75 257.781 70.4062 261.344 77.7188C262.625 80.4062 263.266 83.5938 263.266 87.2812C263.266 90.9688 262.609 94.125 261.297 96.75C259.984 99.375 258.219 101.531 256 103.219C251.688 106.469 245.922 108.094 238.703 108.094H228.344V132H218.969V66.75ZM236.875 100.594C242.531 100.594 246.719 99.5 249.438 97.3125C252.156 95.125 253.516 91.7188 253.516 87.0938C253.516 80.9375 250.656 76.9688 244.938 75.1875C242.938 74.5625 240.516 74.25 237.672 74.25H228.344V100.594H236.875ZM271.188 107.719C271.188 100.125 273.609 93.9688 278.453 89.25C282.984 84.8438 288.594 82.6406 295.281 82.6406C301.844 82.6406 307.328 84.8438 311.734 89.25C316.422 93.9375 318.766 100.094 318.766 107.719C318.766 115.312 316.406 121.438 311.688 126.094C307.219 130.531 301.734 132.75 295.234 132.75C288.641 132.75 283.047 130.531 278.453 126.094C273.609 121.438 271.188 115.312 271.188 107.719ZM280.938 107.719C280.938 115.719 283.5 121.156 288.625 124.031C290.438 125.031 292.609 125.531 295.141 125.531C297.672 125.531 299.812 125.031 301.562 124.031C303.312 123 304.75 121.656 305.875 120C307.969 116.812 309.016 112.719 309.016 107.719C309.016 99.7812 306.5 94.3438 301.469 91.4062C299.719 90.375 297.625 89.8594 295.188 89.8594C292.75 89.8594 290.625 90.375 288.812 91.4062C287.031 92.4062 285.562 93.7344 284.406 95.3906C282.094 98.6406 280.938 102.75 280.938 107.719ZM339.859 95.6719L339.906 132H330.531V83.625H339.156L339.812 88.9219C343.25 86.0469 347.25 84.1719 351.812 83.2969C353.281 83.0156 354.719 82.875 356.125 82.875C361.969 82.875 366.375 85.3438 369.344 90.2812C374.781 85.3438 380.469 82.875 386.406 82.875C392.281 82.875 396.562 84.6406 399.25 88.1719C401.938 91.7656 403.281 97.7031 403.281 105.984V132H393.906V106.312C393.906 98.1875 391.953 93.3281 388.047 91.7344C386.734 91.2031 385.203 90.9375 383.453 90.9375C379.266 90.9375 375.422 92.4375 371.922 95.4375V132H362.547V105.938C362.547 100.375 361.719 96.4688 360.062 94.2188C358.469 92.0312 355.609 90.9375 351.484 90.9375C347.391 90.9375 343.516 92.5156 339.859 95.6719ZM415.188 107.719C415.188 100.125 417.609 93.9688 422.453 89.25C426.984 84.8438 432.594 82.6406 439.281 82.6406C445.844 82.6406 451.328 84.8438 455.734 89.25C460.422 93.9375 462.766 100.094 462.766 107.719C462.766 115.312 460.406 121.438 455.688 126.094C451.219 130.531 445.734 132.75 439.234 132.75C432.641 132.75 427.047 130.531 422.453 126.094C417.609 121.438 415.188 115.312 415.188 107.719ZM424.938 107.719C424.938 115.719 427.5 121.156 432.625 124.031C434.438 125.031 436.609 125.531 439.141 125.531C441.672 125.531 443.812 125.031 445.562 124.031C447.312 123 448.75 121.656 449.875 120C451.969 116.812 453.016 112.719 453.016 107.719C453.016 99.7812 450.5 94.3438 445.469 91.4062C443.719 90.375 441.625 89.8594 439.188 89.8594C436.75 89.8594 434.625 90.375 432.812 91.4062C431.031 92.4062 429.562 93.7344 428.406 95.3906C426.094 98.6406 424.938 102.75 424.938 107.719ZM474.25 66.75H483.625V123.75H511.562V132H474.25V66.75ZM519.25 107.719C519.25 100.125 521.672 93.9688 526.516 89.25C531.047 84.8438 536.656 82.6406 543.344 82.6406C549.906 82.6406 555.391 84.8438 559.797 89.25C564.484 93.9375 566.828 100.094 566.828 107.719C566.828 115.312 564.469 121.438 559.75 126.094C555.281 130.531 549.797 132.75 543.297 132.75C536.703 132.75 531.109 130.531 526.516 126.094C521.672 121.438 519.25 115.312 519.25 107.719ZM529 107.719C529 115.719 531.562 121.156 536.688 124.031C538.5 125.031 540.672 125.531 543.203 125.531C545.734 125.531 547.875 125.031 549.625 124.031C551.375 123 552.812 121.656 553.938 120C556.031 116.812 557.078 112.719 557.078 107.719C557.078 99.7812 554.562 94.3438 549.531 91.4062C547.781 90.375 545.688 89.8594 543.25 89.8594C540.812 89.8594 538.688 90.375 536.875 91.4062C535.094 92.4062 533.625 93.7344 532.469 95.3906C530.156 98.6406 529 102.75 529 107.719ZM605.875 150.469C603.156 151.156 599.656 151.5 595.375 151.5C591.125 151.5 588.016 151.188 586.047 150.562V142.219C588.516 143.281 591.531 143.812 595.094 143.812C598.688 143.844 601.328 143.609 603.016 143.109C604.703 142.609 606.031 141.797 607 140.672C608.75 138.641 609.625 134.969 609.625 129.656V127.172C607.25 129.547 604.125 131.203 600.25 132.141C598.688 132.516 597.125 132.703 595.562 132.703C594 132.703 592.469 132.531 590.969 132.188C589.5 131.844 588.031 131.297 586.562 130.547C585.094 129.766 583.688 128.766 582.344 127.547C581 126.297 579.812 124.75 578.781 122.906C576.469 118.906 575.312 113.984 575.312 108.141C575.25 102.734 576.812 97.9844 580 93.8906C582.75 90.3281 586.531 87.5625 591.344 85.5938C595.719 83.7812 600.453 82.875 605.547 82.875C610.641 82.875 615.125 83.125 619 83.625V129.656C619 141.344 614.625 148.281 605.875 150.469ZM609.625 90.4688C607.625 90.2188 605.656 90.0938 603.719 90.0938C601.781 90.0938 599.609 90.4531 597.203 91.1719C594.797 91.8906 592.688 92.9844 590.875 94.4531C586.906 97.6719 584.922 102.234 584.922 108.141C584.922 114.547 586.469 119.219 589.562 122.156C591.875 124.375 594.703 125.484 598.047 125.484C602.078 125.484 605.469 124.062 608.219 121.219C608.875 120.5 609.344 119.859 609.625 119.297V90.4688Z" fill="black"/>
<path d="M218.969 66.75V65.75H217.969V66.75H218.969ZM261.344 77.7188L262.246 77.2884L262.243 77.2808L261.344 77.7188ZM256 103.219L256.602 104.017L256.605 104.015L256 103.219ZM228.344 108.094V107.094H227.344V108.094H228.344ZM228.344 132V133H229.344V132H228.344ZM218.969 132H217.969V133H218.969V132ZM244.938 75.1875L244.639 76.142L244.64 76.1423L244.938 75.1875ZM228.344 74.25V73.25H227.344V74.25H228.344ZM228.344 100.594H227.344V101.594H228.344V100.594ZM218.969 67.75H237.484V65.75H218.969V67.75ZM237.484 67.75C249.667 67.75 257.129 71.3498 260.445 78.1567L262.243 77.2808C258.434 69.4627 249.99 65.75 237.484 65.75V67.75ZM260.441 78.1491C261.645 80.674 262.266 83.708 262.266 87.2812H264.266C264.266 83.4795 263.605 80.1385 262.246 77.2884L260.441 78.1491ZM262.266 87.2812C262.266 90.8523 261.63 93.8476 260.402 96.3028L262.191 97.1972C263.589 94.4024 264.266 91.0852 264.266 87.2812H262.266ZM260.402 96.3028C259.155 98.7984 257.485 100.833 255.395 102.423L256.605 104.015C258.952 102.23 260.814 99.9516 262.191 97.1972L260.402 96.3028ZM255.398 102.42C251.309 105.502 245.777 107.094 238.703 107.094V109.094C246.066 109.094 252.066 107.436 256.602 104.017L255.398 102.42ZM238.703 107.094H228.344V109.094H238.703V107.094ZM227.344 108.094V132H229.344V108.094H227.344ZM228.344 131H218.969V133H228.344V131ZM219.969 132V66.75H217.969V132H219.969ZM236.875 101.594C242.628 101.594 247.087 100.487 250.064 98.0916L248.811 96.5334C246.35 98.5129 242.435 99.5938 236.875 99.5938V101.594ZM250.064 98.0916C253.091 95.6567 254.516 91.9158 254.516 87.0938H252.516C252.516 91.5217 251.222 94.5933 248.811 96.5334L250.064 98.0916ZM254.516 87.0938C254.516 83.8605 253.763 81.1096 252.182 78.9154C250.6 76.7188 248.254 75.173 245.235 74.2327L244.64 76.1423C247.34 76.9832 249.283 78.3125 250.56 80.0846C251.838 81.8591 252.516 84.1708 252.516 87.0938H254.516ZM245.236 74.233C243.112 73.5693 240.583 73.25 237.672 73.25V75.25C240.448 75.25 242.763 75.5557 244.639 76.142L245.236 74.233ZM237.672 73.25H228.344V75.25H237.672V73.25ZM227.344 74.25V100.594H229.344V74.25H227.344ZM228.344 101.594H236.875V99.5938H228.344V101.594ZM278.453 89.25L277.756 88.5331L277.755 88.5337L278.453 89.25ZM311.688 126.094L310.985 125.382L310.983 125.384L311.688 126.094ZM278.453 126.094L279.148 125.375L279.146 125.373L278.453 126.094ZM288.625 124.031L288.136 124.903L288.142 124.907L288.625 124.031ZM301.562 124.031L302.059 124.9L302.07 124.893L301.562 124.031ZM305.875 120L306.702 120.562L306.707 120.555L306.711 120.549L305.875 120ZM301.469 91.4062L300.961 92.2678L300.965 92.2698L301.469 91.4062ZM288.812 91.4062L289.302 92.2782L289.307 92.2754L288.812 91.4062ZM284.406 95.3906L285.221 95.9704L285.226 95.963L284.406 95.3906ZM272.188 107.719C272.188 100.358 274.525 94.4729 279.151 89.9663L277.755 88.5337C272.694 93.4646 270.188 99.8916 270.188 107.719H272.188ZM279.15 89.9669C283.483 85.7535 288.837 83.6406 295.281 83.6406V81.6406C288.35 81.6406 282.486 83.934 277.756 88.5331L279.15 89.9669ZM295.281 83.6406C301.594 83.6406 306.819 85.7492 311.027 89.9571L312.441 88.5429C307.837 83.9383 302.093 81.6406 295.281 81.6406V83.6406ZM311.027 89.9571C315.499 94.4286 317.766 100.316 317.766 107.719H319.766C319.766 99.8717 317.345 93.4464 312.441 88.5429L311.027 89.9571ZM317.766 107.719C317.766 115.087 315.485 120.941 310.985 125.382L312.39 126.806C317.327 121.934 319.766 115.538 319.766 107.719H317.766ZM310.983 125.384C306.708 129.629 301.48 131.75 295.234 131.75V133.75C301.989 133.75 307.729 131.433 312.392 126.803L310.983 125.384ZM295.234 131.75C288.891 131.75 283.549 129.626 279.148 125.375L277.758 126.813C282.545 131.437 288.391 133.75 295.234 133.75V131.75ZM279.146 125.373C274.525 120.93 272.188 115.079 272.188 107.719H270.188C270.188 115.546 272.694 121.945 277.76 126.815L279.146 125.373ZM279.938 107.719C279.938 115.932 282.584 121.789 288.136 124.903L289.114 123.159C284.416 120.523 281.938 115.506 281.938 107.719H279.938ZM288.142 124.907C290.132 126.005 292.478 126.531 295.141 126.531V124.531C292.741 124.531 290.743 124.058 289.108 123.156L288.142 124.907ZM295.141 126.531C297.802 126.531 300.124 126.005 302.059 124.899L301.066 123.163C299.501 124.057 297.542 124.531 295.141 124.531V126.531ZM302.07 124.893C303.946 123.788 305.493 122.342 306.702 120.562L305.048 119.438C304.007 120.97 302.679 122.212 301.055 123.17L302.07 124.893ZM306.711 120.549C308.94 117.155 310.016 112.854 310.016 107.719H308.016C308.016 112.583 306.997 116.47 305.039 119.451L306.711 120.549ZM310.016 107.719C310.016 99.5709 307.419 93.7222 301.973 90.5427L300.965 92.2698C305.581 94.9653 308.016 99.9916 308.016 107.719H310.016ZM301.976 90.5447C300.044 89.4062 297.768 88.8594 295.188 88.8594V90.8594C297.482 90.8594 299.393 91.3438 300.961 92.2678L301.976 90.5447ZM295.188 88.8594C292.606 88.8594 290.305 89.4066 288.318 90.5371L289.307 92.2754C290.945 91.3434 292.894 90.8594 295.188 90.8594V88.8594ZM288.323 90.5343C286.412 91.6071 284.83 93.0371 283.586 94.8182L285.226 95.963C286.295 94.4317 287.651 93.2054 289.302 92.2782L288.323 90.5343ZM283.591 94.8109C281.132 98.2678 279.938 102.594 279.938 107.719H281.938C281.938 102.906 283.056 99.0134 285.221 95.9704L283.591 94.8109ZM339.859 95.6719L339.206 94.9149L338.859 95.2146L338.859 95.6732L339.859 95.6719ZM339.906 132V133H340.908L340.906 131.999L339.906 132ZM330.531 132H329.531V133H330.531V132ZM330.531 83.625V82.625H329.531V83.625H330.531ZM339.156 83.625L340.149 83.502L340.04 82.625H339.156V83.625ZM339.812 88.9219L338.82 89.0448L339.046 90.8668L340.454 89.689L339.812 88.9219ZM351.812 83.2969L351.624 82.3147L351.624 82.3148L351.812 83.2969ZM369.344 90.2812L368.487 90.7965L369.114 91.8403L370.016 91.0216L369.344 90.2812ZM399.25 88.1719L400.051 87.573L400.046 87.5663L399.25 88.1719ZM403.281 132V133H404.281V132H403.281ZM393.906 132H392.906V133H393.906V132ZM388.047 91.7344L388.425 90.8085L388.422 90.8074L388.047 91.7344ZM371.922 95.4375L371.271 94.6782L370.922 94.9776V95.4375H371.922ZM371.922 132V133H372.922V132H371.922ZM362.547 132H361.547V133H362.547V132ZM360.062 94.2188L359.254 94.8076L359.257 94.8116L360.062 94.2188ZM338.859 95.6732L338.906 132.001L340.906 131.999L340.859 95.6706L338.859 95.6732ZM339.906 131H330.531V133H339.906V131ZM331.531 132V83.625H329.531V132H331.531ZM330.531 84.625H339.156V82.625H330.531V84.625ZM338.164 83.748L338.82 89.0448L340.805 88.7989L340.149 83.502L338.164 83.748ZM340.454 89.689C343.756 86.9271 347.599 85.1232 352.001 84.279L351.624 82.3148C346.901 83.2206 342.744 85.1667 339.171 88.1548L340.454 89.689ZM352.001 84.279C353.411 84.0089 354.786 83.875 356.125 83.875V81.875C354.652 81.875 353.151 82.0223 351.624 82.3147L352.001 84.279ZM356.125 83.875C361.624 83.875 365.702 86.1651 368.487 90.7965L370.201 89.766C367.048 84.5224 362.314 81.875 356.125 81.875V83.875ZM370.016 91.0216C375.315 86.2098 380.773 83.875 386.406 83.875V81.875C380.165 81.875 374.247 84.4777 368.672 89.5409L370.016 91.0216ZM386.406 83.875C392.079 83.875 396.014 85.5707 398.454 88.7775L400.046 87.5663C397.111 83.7106 392.484 81.875 386.406 81.875V83.875ZM398.449 88.7708C400.937 92.0974 402.281 97.7604 402.281 105.984H404.281C404.281 97.6459 402.938 91.4339 400.051 87.573L398.449 88.7708ZM402.281 105.984V132H404.281V105.984H402.281ZM403.281 131H393.906V133H403.281V131ZM394.906 132V106.312H392.906V132H394.906ZM394.906 106.312C394.906 102.185 394.412 98.7965 393.369 96.2013C392.318 93.5849 390.686 91.7312 388.425 90.8085L387.669 92.6603C389.314 93.3313 390.612 94.7041 391.514 96.9472C392.424 99.2113 392.906 102.315 392.906 106.312H394.906ZM388.422 90.8074C386.966 90.218 385.302 89.9375 383.453 89.9375V91.9375C385.104 91.9375 386.503 92.1882 387.672 92.6613L388.422 90.8074ZM383.453 89.9375C379.002 89.9375 374.933 91.5397 371.271 94.6782L372.573 96.1968C375.911 93.3353 379.529 91.9375 383.453 91.9375V89.9375ZM370.922 95.4375V132H372.922V95.4375H370.922ZM371.922 131H362.547V133H371.922V131ZM363.547 132V105.938H361.547V132H363.547ZM363.547 105.938C363.547 100.339 362.726 96.1498 360.868 93.6259L359.257 94.8116C360.712 96.7877 361.547 100.411 361.547 105.938H363.547ZM360.871 93.6299C359.006 91.0702 355.756 89.9375 351.484 89.9375V91.9375C355.463 91.9375 357.932 92.9923 359.254 94.8076L360.871 93.6299ZM351.484 89.9375C347.109 89.9375 343.009 91.6316 339.206 94.9149L340.513 96.4288C344.022 93.3997 347.672 91.9375 351.484 91.9375V89.9375ZM422.453 89.25L421.756 88.5331L421.755 88.5337L422.453 89.25ZM455.688 126.094L454.985 125.382L454.983 125.384L455.688 126.094ZM422.453 126.094L423.148 125.375L423.146 125.373L422.453 126.094ZM432.625 124.031L432.136 124.903L432.142 124.907L432.625 124.031ZM445.562 124.031L446.059 124.9L446.07 124.893L445.562 124.031ZM449.875 120L450.702 120.562L450.707 120.555L450.711 120.549L449.875 120ZM445.469 91.4062L444.961 92.2678L444.965 92.2698L445.469 91.4062ZM432.812 91.4062L433.302 92.2782L433.307 92.2754L432.812 91.4062ZM428.406 95.3906L429.221 95.9704L429.226 95.963L428.406 95.3906ZM416.188 107.719C416.188 100.358 418.525 94.4729 423.151 89.9663L421.755 88.5337C416.694 93.4646 414.188 99.8916 414.188 107.719H416.188ZM423.15 89.9669C427.483 85.7535 432.837 83.6406 439.281 83.6406V81.6406C432.35 81.6406 426.486 83.934 421.756 88.5331L423.15 89.9669ZM439.281 83.6406C445.594 83.6406 450.819 85.7492 455.027 89.9571L456.441 88.5429C451.837 83.9383 446.093 81.6406 439.281 81.6406V83.6406ZM455.027 89.9571C459.499 94.4286 461.766 100.316 461.766 107.719H463.766C463.766 99.8717 461.345 93.4464 456.441 88.5429L455.027 89.9571ZM461.766 107.719C461.766 115.087 459.485 120.941 454.985 125.382L456.39 126.806C461.327 121.934 463.766 115.538 463.766 107.719H461.766ZM454.983 125.384C450.708 129.629 445.48 131.75 439.234 131.75V133.75C445.989 133.75 451.729 131.433 456.392 126.803L454.983 125.384ZM439.234 131.75C432.891 131.75 427.549 129.626 423.148 125.375L421.758 126.813C426.545 131.437 432.391 133.75 439.234 133.75V131.75ZM423.146 125.373C418.525 120.93 416.188 115.079 416.188 107.719H414.188C414.188 115.546 416.694 121.945 421.76 126.815L423.146 125.373ZM423.938 107.719C423.938 115.932 426.584 121.789 432.136 124.903L433.114 123.159C428.416 120.523 425.938 115.506 425.938 107.719H423.938ZM432.142 124.907C434.132 126.005 436.478 126.531 439.141 126.531V124.531C436.741 124.531 434.743 124.058 433.108 123.156L432.142 124.907ZM439.141 126.531C441.802 126.531 444.124 126.005 446.059 124.899L445.066 123.163C443.501 124.057 441.542 124.531 439.141 124.531V126.531ZM446.07 124.893C447.946 123.788 449.493 122.342 450.702 120.562L449.048 119.438C448.007 120.97 446.679 122.212 445.055 123.17L446.07 124.893ZM450.711 120.549C452.94 117.155 454.016 112.854 454.016 107.719H452.016C452.016 112.583 450.997 116.47 449.039 119.451L450.711 120.549ZM454.016 107.719C454.016 99.5709 451.419 93.7222 445.973 90.5427L444.965 92.2698C449.581 94.9653 452.016 99.9916 452.016 107.719H454.016ZM445.976 90.5447C444.044 89.4062 441.768 88.8594 439.188 88.8594V90.8594C441.482 90.8594 443.393 91.3438 444.961 92.2678L445.976 90.5447ZM439.188 88.8594C436.606 88.8594 434.305 89.4066 432.318 90.5371L433.307 92.2754C434.945 91.3434 436.894 90.8594 439.188 90.8594V88.8594ZM432.323 90.5343C430.412 91.6071 428.83 93.0371 427.586 94.8182L429.226 95.963C430.295 94.4317 431.651 93.2054 433.302 92.2782L432.323 90.5343ZM427.591 94.8109C425.132 98.2678 423.938 102.594 423.938 107.719H425.938C425.938 102.906 427.056 99.0134 429.221 95.9704L427.591 94.8109ZM474.25 66.75V65.75H473.25V66.75H474.25ZM483.625 66.75H484.625V65.75H483.625V66.75ZM483.625 123.75H482.625V124.75H483.625V123.75ZM511.562 123.75H512.562V122.75H511.562V123.75ZM511.562 132V133H512.562V132H511.562ZM474.25 132H473.25V133H474.25V132ZM474.25 67.75H483.625V65.75H474.25V67.75ZM482.625 66.75V123.75H484.625V66.75H482.625ZM483.625 124.75H511.562V122.75H483.625V124.75ZM510.562 123.75V132H512.562V123.75H510.562ZM511.562 131H474.25V133H511.562V131ZM475.25 132V66.75H473.25V132H475.25ZM526.516 89.25L525.818 88.5331L525.818 88.5337L526.516 89.25ZM559.75 126.094L559.048 125.382L559.045 125.384L559.75 126.094ZM526.516 126.094L527.21 125.375L527.209 125.373L526.516 126.094ZM536.688 124.031L536.198 124.903L536.204 124.907L536.688 124.031ZM549.625 124.031L550.121 124.9L550.133 124.893L549.625 124.031ZM553.938 120L554.765 120.562L554.769 120.555L554.773 120.549L553.938 120ZM549.531 91.4062L549.024 92.2678L549.027 92.2698L549.531 91.4062ZM536.875 91.4062L537.365 92.2782L537.37 92.2754L536.875 91.4062ZM532.469 95.3906L533.284 95.9704L533.289 95.963L532.469 95.3906ZM520.25 107.719C520.25 100.358 522.587 94.4729 527.213 89.9663L525.818 88.5337C520.756 93.4646 518.25 99.8916 518.25 107.719H520.25ZM527.213 89.9669C531.546 85.7535 536.9 83.6406 543.344 83.6406V81.6406C536.413 81.6406 530.548 83.934 525.818 88.5331L527.213 89.9669ZM543.344 83.6406C549.657 83.6406 554.882 85.7492 559.09 89.9571L560.504 88.5429C555.899 83.9383 550.156 81.6406 543.344 81.6406V83.6406ZM559.09 89.9571C563.561 94.4286 565.828 100.316 565.828 107.719H567.828C567.828 99.8717 565.408 93.4464 560.504 88.5429L559.09 89.9571ZM565.828 107.719C565.828 115.087 563.548 120.941 559.048 125.382L560.452 126.806C565.39 121.934 567.828 115.538 567.828 107.719H565.828ZM559.045 125.384C554.771 129.629 549.542 131.75 543.297 131.75V133.75C550.051 133.75 555.792 131.433 560.455 126.803L559.045 125.384ZM543.297 131.75C536.953 131.75 531.611 129.626 527.21 125.375L525.821 126.813C530.608 131.437 536.453 133.75 543.297 133.75V131.75ZM527.209 125.373C522.587 120.93 520.25 115.079 520.25 107.719H518.25C518.25 115.546 520.756 121.945 525.823 126.815L527.209 125.373ZM528 107.719C528 115.932 530.647 121.789 536.198 124.903L537.177 123.159C532.478 120.523 530 115.506 530 107.719H528ZM536.204 124.907C538.194 126.005 540.54 126.531 543.203 126.531V124.531C540.804 124.531 538.806 124.058 537.171 123.156L536.204 124.907ZM543.203 126.531C545.865 126.531 548.186 126.005 550.121 124.899L549.129 123.163C547.564 124.057 545.604 124.531 543.203 124.531V126.531ZM550.133 124.893C552.008 123.788 553.555 122.342 554.765 120.562L553.11 119.438C552.07 120.97 550.742 122.212 549.117 123.17L550.133 124.893ZM554.773 120.549C557.003 117.155 558.078 112.854 558.078 107.719H556.078C556.078 112.583 555.06 116.47 553.102 119.451L554.773 120.549ZM558.078 107.719C558.078 99.5709 555.481 93.7222 550.035 90.5427L549.027 92.2698C553.644 94.9653 556.078 99.9916 556.078 107.719H558.078ZM550.039 90.5447C548.107 89.4062 545.83 88.8594 543.25 88.8594V90.8594C545.545 90.8594 547.456 91.3438 549.024 92.2678L550.039 90.5447ZM543.25 88.8594C540.669 88.8594 538.367 89.4066 536.38 90.5371L537.37 92.2754C539.008 91.3434 540.956 90.8594 543.25 90.8594V88.8594ZM536.385 90.5343C534.474 91.6071 532.892 93.0371 531.649 94.8182L533.289 95.963C534.358 94.4317 535.713 93.2054 537.365 92.2782L536.385 90.5343ZM531.654 94.8109C529.194 98.2678 528 102.594 528 107.719H530C530 102.906 531.118 99.0134 533.284 95.9704L531.654 94.8109ZM605.875 150.469L605.632 149.499L605.63 149.499L605.875 150.469ZM586.047 150.562H585.047V151.294L585.744 151.516L586.047 150.562ZM586.047 142.219L586.442 141.3L585.047 140.7V142.219H586.047ZM595.094 143.812L595.102 142.812H595.094V143.812ZM607 140.672L606.242 140.019L606.242 140.019L607 140.672ZM609.625 127.172H610.625V124.758L608.918 126.465L609.625 127.172ZM600.25 132.141L600.483 133.113L600.485 133.113L600.25 132.141ZM590.969 132.188L590.741 133.161L590.745 133.162L590.969 132.188ZM586.562 130.547L586.093 131.43L586.1 131.434L586.108 131.437L586.562 130.547ZM582.344 127.547L581.663 128.279L581.672 128.288L582.344 127.547ZM578.781 122.906L579.654 122.418L579.651 122.412L579.647 122.406L578.781 122.906ZM575.312 108.141H576.313L576.312 108.129L575.312 108.141ZM580 93.8906L580.789 94.505L580.792 94.5017L580 93.8906ZM591.344 85.5938L591.722 86.5193L591.726 86.5176L591.344 85.5938ZM619 83.625H620V82.7457L619.128 82.6332L619 83.625ZM609.625 90.4688H610.625V89.586L609.749 89.4765L609.625 90.4688ZM590.875 94.4531L590.245 93.6762L590.245 93.6765L590.875 94.4531ZM589.562 122.156L590.255 121.435L590.251 121.431L589.562 122.156ZM608.219 121.219L608.938 121.914L608.948 121.904L608.957 121.893L608.219 121.219ZM609.625 119.297L610.519 119.744L610.625 119.533V119.297H609.625ZM605.63 149.499C603.022 150.159 599.612 150.5 595.375 150.5V152.5C599.7 152.5 603.291 152.154 606.12 151.438L605.63 149.499ZM595.375 150.5C591.143 150.5 588.163 150.185 586.349 149.609L585.744 151.516C587.868 152.19 591.107 152.5 595.375 152.5V150.5ZM587.047 150.562V142.219H585.047V150.562H587.047ZM585.652 143.137C588.279 144.268 591.437 144.812 595.094 144.812V142.812C591.625 142.812 588.753 142.295 586.442 141.3L585.652 143.137ZM595.085 144.812C598.697 144.844 601.462 144.613 603.3 144.068L602.732 142.151C601.194 142.606 598.678 142.844 595.102 142.813L595.085 144.812ZM603.3 144.068C605.137 143.524 606.642 142.62 607.758 141.324L606.242 140.019C605.42 140.974 604.27 141.695 602.732 142.151L603.3 144.068ZM607.758 141.325C609.758 139.003 610.625 135.007 610.625 129.656H608.625C608.625 134.93 607.742 138.279 606.242 140.019L607.758 141.325ZM610.625 129.656V127.172H608.625V129.656H610.625ZM608.918 126.465C606.695 128.687 603.745 130.266 600.015 131.169L600.485 133.113C604.505 132.14 607.805 130.406 610.332 127.879L608.918 126.465ZM600.017 131.168C598.528 131.525 597.044 131.703 595.562 131.703V133.703C597.206 133.703 598.847 133.506 600.483 133.113L600.017 131.168ZM595.562 131.703C594.074 131.703 592.618 131.539 591.192 131.213L590.745 133.162C592.32 133.523 593.926 133.703 595.562 133.703V131.703ZM591.197 131.214C589.814 130.89 588.421 130.373 587.017 129.656L586.108 131.437C587.642 132.221 589.186 132.797 590.741 133.161L591.197 131.214ZM587.032 129.664C585.643 128.925 584.304 127.974 583.016 126.806L581.672 128.288C583.071 129.557 584.545 130.606 586.093 131.43L587.032 129.664ZM583.025 126.815C581.768 125.645 580.642 124.184 579.654 122.418L577.908 123.394C578.983 125.316 580.232 126.948 581.663 128.279L583.025 126.815ZM579.647 122.406C577.443 118.593 576.312 113.854 576.312 108.141H574.312C574.312 114.114 575.495 119.219 577.916 123.407L579.647 122.406ZM576.312 108.129C576.252 102.939 577.747 98.4121 580.789 94.505L579.211 93.2763C575.878 97.5567 574.248 102.53 574.313 108.152L576.312 108.129ZM580.792 94.5017C583.418 91.0989 587.047 88.4319 591.722 86.5193L590.965 84.6682C586.015 86.6931 582.082 89.5573 579.208 93.2796L580.792 94.5017ZM591.726 86.5176C595.971 84.7591 600.574 83.875 605.547 83.875V81.875C600.332 81.875 595.466 82.8034 590.961 84.6699L591.726 86.5176ZM605.547 83.875C610.61 83.875 615.05 84.1236 618.872 84.6168L619.128 82.6332C615.2 82.1264 610.671 81.875 605.547 81.875V83.875ZM618 83.625V129.656H620V83.625H618ZM618 129.656C618 135.388 616.926 139.837 614.873 143.092C612.837 146.32 609.785 148.461 605.632 149.499L606.118 151.439C610.715 150.289 614.225 147.868 616.565 144.158C618.887 140.476 620 135.612 620 129.656H618ZM609.749 89.4765C607.71 89.2215 605.699 89.0938 603.719 89.0938V91.0938C605.613 91.0938 607.54 91.216 609.501 91.461L609.749 89.4765ZM603.719 89.0938C601.661 89.0938 599.39 89.475 596.917 90.2137L597.489 92.13C599.829 91.4313 601.902 91.0938 603.719 91.0938V89.0938ZM596.917 90.2137C594.395 90.967 592.167 92.1191 590.245 93.6762L591.505 95.2301C593.208 93.8497 595.199 92.8143 597.489 92.13L596.917 90.2137ZM590.245 93.6765C586.004 97.1159 583.922 101.986 583.922 108.141H585.922C585.922 102.483 587.808 98.2278 591.505 95.2298L590.245 93.6765ZM583.922 108.141C583.922 114.684 585.5 119.678 588.874 122.881L590.251 121.431C587.437 118.76 585.922 114.41 585.922 108.141H583.922ZM588.87 122.878C591.378 125.284 594.457 126.484 598.047 126.484V124.484C594.949 124.484 592.372 123.466 590.255 121.435L588.87 122.878ZM598.047 126.484C602.343 126.484 605.995 124.957 608.938 121.914L607.5 120.524C604.942 123.168 601.813 124.484 598.047 124.484V126.484ZM608.957 121.893C609.646 121.139 610.181 120.421 610.519 119.744L608.731 118.85C608.507 119.298 608.104 119.861 607.48 120.544L608.957 121.893ZM610.625 119.297V90.4688H608.625V119.297H610.625Z" fill="black" mask="url(#path-1-outside-1_371_3)"/>
<path d="M36.2582 54.3426C28.5716 65.4451 24.0889 78.7965 24.0889 93.1596C24.0889 131.748 56.4439 163.03 96.3557 163.03C136.268 163.03 168.623 131.748 168.623 93.1596C168.623 54.5712 136.268 23.2891 96.3557 23.2891V46.5792M96.3557 93.1596L64.2371 62.106" stroke="black" stroke-width="15" stroke-linecap="round" stroke-linejoin="round"/>
</svg>
