<svg xmlns="http://www.w3.org/2000/svg" version="1.1" xmlns:xlink="http://www.w3.org/1999/xlink" xmlns:svgjs="http://svgjs.dev/svgjs" width="1500" height="280" viewBox="0 0 1500 280"><g transform="matrix(1,0,0,1,-0.9090909090909918,-0.33593200386391686)"><svg viewBox="0 0 396 74" data-background-color="#ede1d1" preserveAspectRatio="xMidYMid meet" height="280" width="1500" xmlns="http://www.w3.org/2000/svg" xmlns:xlink="http://www.w3.org/1999/xlink"><g id="tight-bounds" transform="matrix(1,0,0,1,0.2400000000000091,0.08878202959260761)"><svg viewBox="0 0 395.52 73.82243594081476" height="73.82243594081476" width="395.52"><g><svg viewBox="0 0 510.3350870147005 95.25227363848315" height="73.82243594081476" width="395.52"><g transform="matrix(1,0,0,1,114.81508701470058,26.9094890276221)"><svg viewBox="0 0 395.5199999999999 41.433295583238944" height="41.433295583238944" width="395.5199999999999"><g id="textblocktransform"><svg viewBox="0 0 395.5199999999999 41.433295583238944" height="41.433295583238944" width="395.5199999999999" id="textblock"><g><svg viewBox="0 0 395.5199999999999 41.433295583238944" height="41.433295583238944" width="395.5199999999999"><g transform="matrix(1,0,0,1,0,0)"><svg width="395.5199999999999" viewBox="4.5 -36.4 353.17 37" height="41.433295583238944" data-palette-color="#6a704c"><path d="M9.8 0L4.5 0 5-4 5-31 4.5-35 24.5-35 24.5-30.6 21.5-31.1 9.3-31.1 9.3-19.1 23.5-19.1 23.5-14.8 20.5-15.2 9.3-15.2 9.3-4 9.8 0ZM40.65 0.6L40.65 0.6Q37.65 0.6 34.9-0.7 32.15-2 30.42-4.95 28.7-7.9 28.7-12.75L28.7-12.75Q28.7-16.45 29.7-19 30.7-21.55 32.4-23.13 34.1-24.7 36.25-25.4 38.4-26.1 40.65-26.1L40.65-26.1Q42.9-26.1 45.05-25.4 47.2-24.7 48.9-23.13 50.6-21.55 51.6-19 52.6-16.45 52.6-12.75L52.6-12.75Q52.6-7.9 50.87-4.95 49.15-2 46.42-0.7 43.7 0.6 40.65 0.6ZM40.65-3L40.65-3Q44.2-3 46.25-5.2 48.3-7.4 48.3-12.85L48.3-12.85Q48.3-16.5 47.37-18.6 46.45-20.7 44.75-21.6 43.05-22.5 40.65-22.5L40.65-22.5Q38.25-22.5 36.55-21.6 34.85-20.7 33.92-18.6 33-16.5 33-12.85L33-12.85Q33-7.4 35.05-5.2 37.1-3 40.65-3ZM71.2 0.6L71.2 0.6Q68.95 0.6 66.62-0.03 64.3-0.65 62.34-2.18 60.4-3.7 59.2-6.28 58-8.85 58-12.75L58-12.75Q58-16.5 59.09-19.05 60.2-21.6 62.07-23.15 63.95-24.7 66.3-25.4 68.65-26.1 71.15-26.1L71.15-26.1Q73-26.1 74.45-25.8 75.9-25.5 77.15-24.95L77.15-24.95 77.15-21.35 76.34-20.85Q75.15-21.7 73.8-22.1 72.45-22.5 70.8-22.5L70.8-22.5Q68.59-22.5 66.65-21.63 64.7-20.75 63.5-18.65 62.3-16.55 62.3-12.85L62.3-12.85Q62.3-9.9 63.07-7.98 63.84-6.05 65.12-4.98 66.4-3.9 67.92-3.45 69.45-3 70.9-3L70.9-3Q72.8-3 74.27-3.55 75.75-4.1 76.7-4.75L76.7-4.75 77.5-4.25 77.5-0.65Q76.09-0.05 74.52 0.28 72.95 0.6 71.2 0.6ZM93.79 0.6L93.79 0.6Q92.24 0.6 90.57 0.2 88.89-0.2 87.47-1.18 86.04-2.15 85.17-3.88 84.29-5.6 84.29-8.3L84.29-8.3 84.29-21.5 83.79-25.5 88.99-25.5 88.49-21.5 88.49-8.95Q88.49-6.45 89.32-5.15 90.14-3.85 91.52-3.43 92.89-3 94.54-3L94.54-3Q97.74-3 99.49-3.98 101.24-4.95 102.59-6.35L102.59-6.35 102.59-3.55 98.04-0.05Q97.09 0.25 96.04 0.43 94.99 0.6 93.79 0.6ZM106.39 0L102.24 0 101.69-3.15 101.69-21.5 101.19-25.5 106.39-25.5 105.89-21.5 105.89-4 106.39 0ZM129.99-24.9L129.99-24.9 129.99-21.1 129.19-20.6Q127.79-21.5 126.09-22 124.39-22.5 122.19-22.5L122.19-22.5Q120.69-22.5 119.47-22.23 118.24-21.95 117.52-21.28 116.79-20.6 116.79-19.4L116.79-19.4Q116.79-17.95 117.84-17.1 118.89-16.25 120.57-15.65 122.24-15.05 124.09-14.45 125.94-13.85 127.62-12.95 129.29-12.05 130.34-10.55 131.39-9.05 131.39-6.65L131.39-6.65Q131.39-3.8 129.92-2.23 128.44-0.65 126.04-0.03 123.64 0.6 120.94 0.6L120.94 0.6Q118.19 0.6 116.09 0.15 113.99-0.3 112.49-0.8L112.49-0.8 112.49-4.5 113.29-5Q114.89-4.05 116.74-3.53 118.59-3 121.29-3L121.29-3Q122.84-3 124.19-3.25 125.54-3.5 126.42-4.25 127.29-5 127.29-6.45L127.29-6.45Q127.29-8.1 126.24-9.05 125.19-10 123.52-10.6 121.84-11.2 119.97-11.75 118.09-12.3 116.42-13.13 114.74-13.95 113.69-15.4 112.64-16.85 112.64-19.2L112.64-19.2Q112.64-21.35 113.52-22.7 114.39-24.05 115.87-24.8 117.34-25.55 119.12-25.83 120.89-26.1 122.69-26.1L122.69-26.1Q124.89-26.1 126.72-25.78 128.54-25.45 129.99-24.9ZM173.14-3.7L172.04-3.65 159.14-17.4Q157.54-19.15 156.31-20.58 155.09-22 154.39-23.58 153.69-25.15 153.69-27.35L153.69-27.35Q153.69-31.5 155.94-33.5 158.19-35.5 162.39-35.5L162.39-35.5Q166.49-35.5 168.79-33.58 171.09-31.65 171.09-27.85L171.09-27.85Q171.09-25.55 170.26-24.03 169.44-22.5 168.29-21.58 167.14-20.65 166.04-20.05L166.04-20.05 164.19-22.25 164.19-22.95Q165.64-23.75 166.36-24.7 167.09-25.65 167.09-27.45L167.09-27.45Q167.09-29.95 165.81-30.93 164.54-31.9 162.34-31.9L162.34-31.9Q160.14-31.9 158.91-30.95 157.69-30 157.69-27.6L157.69-27.6Q157.69-25.45 158.56-23.93 159.44-22.4 160.66-21.2 161.89-20 162.94-18.8L162.94-18.8 173.14-7.8 173.14-3.7ZM176.29-17.6L179.39-17.6 179.39-9.9Q179.39-4.65 176.39-2.33 173.39 0 168.59 0L168.59 0 159.99 0Q154.89 0 152.31-2.4 149.74-4.8 149.69-8.75L149.69-8.75Q149.69-10.8 150.44-13 151.19-15.2 153.21-17.25 155.24-19.3 158.89-20.95L158.89-20.95 161.89-17.95Q159.19-17.1 157.36-15.7 155.54-14.3 154.61-12.53 153.69-10.75 153.69-8.75L153.69-8.75Q153.69-6.4 155.26-5.05 156.84-3.7 161.24-3.7L161.24-3.7 168.64-3.7Q170.54-3.7 172.09-4.13 173.64-4.55 174.56-5.68 175.49-6.8 175.49-8.95L175.49-8.95 175.49-16.8 176.29-17.6ZM206.03 0L200.78 0 201.28-4 201.28-31 200.78-35 212.93-35Q216.63-35 219.23-33.52 221.83-32.05 223.21-29.7 224.58-27.35 224.58-24.65L224.58-24.65Q224.58-22.85 223.93-21.03 223.28-19.2 221.91-17.68 220.53-16.15 218.31-15.23 216.08-14.3 212.93-14.3L212.93-14.3 205.53-14.3 205.53-4 206.03 0ZM226.18 0L221.13 0 218.93-4 210.68-15.8 214.53-15.8 217.53-13.05 226.18 0ZM205.53-31.3L205.53-18 212.73-18Q216.53-18 218.25-19.93 219.98-21.85 219.98-24.45L219.98-24.45Q219.98-27.25 218.13-29.28 216.28-31.3 212.63-31.3L212.63-31.3 205.53-31.3ZM232.08-12.8L232.08-12.8Q232.08-17.75 233.7-20.68 235.33-23.6 237.98-24.85 240.63-26.1 243.63-26.1L243.63-26.1Q247.08-26.1 249.4-24.73 251.73-23.35 252.9-20.83 254.08-18.3 254.08-14.8L254.08-14.8Q254.08-13.8 253.98-12.95 253.88-12.1 253.73-11.35L253.73-11.35 234.28-11.35 234.28-12.25 238.78-14.75 249.83-14.75Q249.83-17 249.35-18.75 248.88-20.5 247.53-21.5 246.18-22.5 243.58-22.5L243.58-22.5Q240.88-22.5 239.3-21.33 237.73-20.15 237.05-18.05 236.38-15.95 236.38-13.15L236.38-13.15Q236.38-9.8 237.13-7.75 237.88-5.7 239.13-4.7 240.38-3.7 241.88-3.35 243.38-3 244.88-3L244.88-3Q247.23-3 248.95-3.48 250.68-3.95 252.03-4.75L252.03-4.75 252.83-4.25 252.83-0.65Q251.28-0.1 249.4 0.25 247.53 0.6 245.33 0.6L245.33 0.6Q242.93 0.6 240.55 0.03 238.18-0.55 236.28-2 234.38-3.45 233.23-6.08 232.08-8.7 232.08-12.8ZM272.32 0.6L272.32 0.6Q270.07 0.6 267.75-0.03 265.43-0.65 263.48-2.18 261.53-3.7 260.32-6.28 259.13-8.85 259.13-12.75L259.13-12.75Q259.13-16.5 260.23-19.05 261.32-21.6 263.2-23.15 265.07-24.7 267.43-25.4 269.78-26.1 272.28-26.1L272.28-26.1Q274.13-26.1 275.57-25.8 277.03-25.5 278.28-24.95L278.28-24.95 278.28-21.35 277.48-20.85Q276.28-21.7 274.93-22.1 273.57-22.5 271.93-22.5L271.93-22.5Q269.73-22.5 267.78-21.63 265.82-20.75 264.63-18.65 263.43-16.55 263.43-12.85L263.43-12.85Q263.43-9.9 264.2-7.98 264.98-6.05 266.25-4.98 267.53-3.9 269.05-3.45 270.57-3 272.03-3L272.03-3Q273.93-3 275.4-3.55 276.88-4.1 277.82-4.75L277.82-4.75 278.63-4.25 278.63-0.65Q277.23-0.05 275.65 0.28 274.07 0.6 272.32 0.6ZM296.17 0.6L296.17 0.6Q293.17 0.6 290.42-0.7 287.67-2 285.95-4.95 284.22-7.9 284.22-12.75L284.22-12.75Q284.22-16.45 285.22-19 286.22-21.55 287.92-23.13 289.62-24.7 291.77-25.4 293.92-26.1 296.17-26.1L296.17-26.1Q298.42-26.1 300.57-25.4 302.72-24.7 304.42-23.13 306.12-21.55 307.12-19 308.12-16.45 308.12-12.75L308.12-12.75Q308.12-7.9 306.4-4.95 304.67-2 301.95-0.7 299.22 0.6 296.17 0.6ZM296.17-3L296.17-3Q299.72-3 301.77-5.2 303.82-7.4 303.82-12.85L303.82-12.85Q303.82-16.5 302.9-18.6 301.97-20.7 300.27-21.6 298.57-22.5 296.17-22.5L296.17-22.5Q293.77-22.5 292.07-21.6 290.37-20.7 289.45-18.6 288.52-16.5 288.52-12.85L288.52-12.85Q288.52-7.4 290.57-5.2 292.62-3 296.17-3ZM319.82 0L314.62 0 315.12-4 315.12-21.5 314.62-25.5 317.97-25.5 318.77-22.55 319.32-22.55 319.32-4 319.82 0ZM318.27-16.45L318.27-16.45 318.27-21.7 322.67-25.45Q324.47-26.1 326.37-26.1L326.37-26.1Q327.22-26.1 328.12-25.98 329.02-25.85 329.97-25.45L329.97-25.45 329.97-22.1 329.17-21.6Q328.32-21.9 327.55-22 326.77-22.1 326.12-22.1L326.12-22.1Q323.17-22.1 321.32-20.58 319.47-19.05 318.27-16.45ZM345.52 0.6L345.52 0.6Q342.32 0.6 339.77-0.95 337.22-2.5 335.74-5.5 334.27-8.5 334.27-12.75L334.27-12.75Q334.27-17.25 335.82-20.23 337.37-23.2 339.89-24.65 342.42-26.1 345.32-26.1L345.32-26.1Q346.77-26.1 347.92-25.83 349.07-25.55 349.87-25.25L349.87-25.25 354.77-21.9 354.77-18.9Q353.87-19.95 352.69-20.75 351.52-21.55 350.02-22.03 348.52-22.5 346.52-22.5L346.52-22.5Q343.72-22.5 341.97-21.45 340.22-20.4 339.39-18.23 338.57-16.05 338.57-12.75L338.57-12.75Q338.57-7.9 340.44-5.45 342.32-3 346.62-3L346.62-3Q348.67-3 350.02-3.5 351.37-4 352.24-4.78 353.12-5.55 353.62-6.45L353.62-6.45 354.02-3.45 349.72 0Q348.77 0.25 347.72 0.43 346.67 0.6 345.52 0.6ZM357.67 0L353.72 0 352.97-2.6 352.97-32.4 352.47-36.4 357.67-36.4 357.17-32.4 357.17-4 357.67 0Z" opacity="1" transform="matrix(1,0,0,1,0,0)" fill="#6a704c" class="wordmark-text-0" data-fill-palette-color="primary" id="text-0"></path></svg></g></svg></g></svg></g></svg></g><g><svg viewBox="0 0 95.25227363848315 95.25227363848315" height="95.25227363848315" width="95.25227363848315"><g><svg></svg></g><g id="icon-0"><svg viewBox="0 0 95.25227363848315 95.25227363848315" height="95.25227363848315" width="95.25227363848315"><g><path d="M0 47.626c0-26.303 21.323-47.626 47.626-47.626 26.303 0 47.626 21.323 47.626 47.626 0 26.303-21.323 47.626-47.626 47.626-26.303 0-47.626-21.323-47.626-47.626zM47.626 91.516c24.24 0 43.89-19.65 43.89-43.89 0-24.24-19.65-43.89-43.89-43.889-24.24 0-43.89 19.65-43.889 43.889 0 24.24 19.65 43.89 43.889 43.89z" data-fill-palette-color="accent" fill="#412e27" stroke="transparent"></path></g><g transform="matrix(1,0,0,1,28.244131013931955,25.233428739675414)"><svg viewBox="0 0 38.764011610619235 44.78541615913232" height="44.78541615913232" width="38.764011610619235"><g><svg xmlns="http://www.w3.org/2000/svg" xmlns:xlink="http://www.w3.org/1999/xlink" version="1.1" x="0" y="0" viewBox="7.2 0.6 85.60288319456623 98.9" style="enable-background:new 0 0 100 100;" xml:space="preserve" height="44.78541615913232" width="38.764011610619235" class="icon-dxe-0" data-fill-palette-color="accent" id="dxe-0"><path d="M77.1 39.2H82.3C83.1 39.2 83.8 38.5 83.8 37.7S83.1 36.2 82.3 36.2H77C76.4 24.3 66.8 14.7 54.8 14V8.7C54.8 7.9 54.1 7.2 53.3 7.2S51.8 7.9 51.8 8.7V14C39.9 14.7 30.3 24.3 29.5 36.2H24.2C23.4 36.2 22.7 36.9 22.7 37.7S23.4 39.2 24.2 39.2H29.4C30.1 51.2 39.7 60.8 51.7 61.5V66.7C51.7 67.5 52.4 68.2 53.2 68.2S54.7 67.5 54.7 66.7V61.5C66.8 60.8 76.4 51.2 77.1 39.2M54.8 58.5V53.4C54.8 52.6 54.1 51.9 53.3 51.9S51.8 52.6 51.8 53.4V58.5C41.5 57.8 33.3 49.5 32.5 39.2H37.6C38.4 39.2 39.1 38.5 39.1 37.7S38.4 36.2 37.6 36.2H32.5C33.2 25.9 41.5 17.7 51.7 17V22.1C51.7 22.9 52.4 23.6 53.2 23.6S54.7 22.9 54.7 22.1V17C65 17.7 73.2 26 73.9 36.2H69C68.2 36.2 67.5 36.9 67.5 37.7S68.2 39.2 69 39.2H74.1C73.4 49.5 65.1 57.8 54.8 58.5M53.3 29.5C48.8 29.5 45.1 33.2 45.1 37.7S48.8 45.9 53.3 45.9 61.5 42.2 61.5 37.7 57.9 29.5 53.3 29.5M53.3 42.9C50.4 42.9 48.1 40.6 48.1 37.7S50.4 32.5 53.3 32.5 58.5 34.8 58.5 37.7 56.2 42.9 53.3 42.9M85.1 62.4C79.7 69.7 77.7 78.9 79.6 87.6L80.9 93.4C81.1 94.2 80.6 95 79.8 95.2S78.2 94.9 78 94.1L76.7 88.3C74.6 78.7 76.7 68.6 82.7 60.6 87.7 53.9 89.9 47.5 89.8 39.9 89.8 19.8 73.4 3.4 53.3 3.4S16.9 19.9 16.9 40C16.9 45.9 14.2 48.4 12.2 50.3 10.9 51.6 10.2 52.3 10.2 53.4 10.2 55.9 12.9 58.6 15.4 58.6 16.2 58.6 16.9 59.3 16.9 60.1V69C16.9 71 17.3 72.4 18.1 73.2 19.5 74.6 22.1 74.6 24.9 74.6H28.8C31.4 74.6 33.9 75.6 35.8 77.3 37.8 79.1 39.1 81.5 39.5 84.2L41.4 97.8C41.5 98.6 40.9 99.4 40.1 99.5H39.9C39.2 99.5 38.5 99 38.4 98.2L36.5 84.6C36.2 82.6 35.3 80.8 33.8 79.5 32.4 78.2 30.6 77.6 28.8 77.6H24.9C21.7 77.6 18.3 77.6 16 75.4 14.6 74 13.9 71.9 13.9 69.1V61.5C10.3 60.7 7.2 57.2 7.2 53.5 7.2 51 8.7 49.6 10.2 48.2 12 46.5 13.9 44.7 13.9 40.1 13.9 18.3 31.6 0.6 53.4 0.6S92.8 18.2 92.8 40C92.9 48.1 90.4 55.3 85.1 62.4" fill="#412e27" data-fill-palette-color="accent"></path></svg></g></svg></g></svg></g></svg></g></svg></g><defs></defs></svg><rect width="395.52" height="73.82243594081476" fill="none" stroke="none" visibility="hidden"></rect></g></svg></g></svg>