<svg width="1500" height="280" viewBox="0 0 1500 1500" fill="none" xmlns="http://www.w3.org/2000/svg">
<g clip-path="url(#clip0_369_59)">
<path d="M1500 0H0V1500H1500V0Z" fill="white"/>
<g clip-path="url(#clip1_369_59)">
<g clip-path="url(#clip2_369_59)">
<g clip-path="url(#clip3_369_59)">
<mask id="path-2-outside-1_369_59" maskUnits="userSpaceOnUse" x="658.656" y="716.547" width="403" height="88" fill="black">
<rect fill="white" x="658.656" y="716.547" width="403" height="88"/>
<path d="M660.625 718.297H679.14C691.484 718.297 699.437 721.953 703 729.266C704.281 731.953 704.921 735.141 704.921 738.828C704.921 742.516 704.265 745.672 702.953 748.297C701.64 750.922 699.875 753.078 697.656 754.766C693.343 758.016 687.578 759.641 680.359 759.641H670V783.547H660.625V718.297ZM678.531 752.141C684.187 752.141 688.375 751.047 691.093 748.859C693.812 746.672 695.171 743.266 695.171 738.641C695.171 732.484 692.312 728.516 686.593 726.734C684.593 726.109 682.171 725.797 679.328 725.797H670V752.141H678.531ZM712.843 759.266C712.843 751.672 715.265 745.516 720.109 740.797C724.64 736.391 730.25 734.188 736.937 734.188C743.5 734.188 748.984 736.391 753.39 740.797C758.078 745.484 760.421 751.641 760.421 759.266C760.421 766.859 758.062 772.984 753.343 777.641C748.875 782.078 743.39 784.297 736.89 784.297C730.296 784.297 724.703 782.078 720.109 777.641C715.265 772.984 712.843 766.859 712.843 759.266ZM722.593 759.266C722.593 767.266 725.156 772.703 730.281 775.578C732.093 776.578 734.265 777.078 736.796 777.078C739.328 777.078 741.468 776.578 743.218 775.578C744.968 774.547 746.406 773.203 747.531 771.547C749.625 768.359 750.671 764.266 750.671 759.266C750.671 751.328 748.156 745.891 743.125 742.953C741.375 741.922 739.281 741.406 736.843 741.406C734.406 741.406 732.281 741.922 730.468 742.953C728.687 743.953 727.218 745.281 726.062 746.938C723.75 750.188 722.593 754.297 722.593 759.266ZM781.515 747.219L781.562 783.547H772.187V735.172H780.812L781.468 740.469C784.906 737.594 788.906 735.719 793.468 734.844C794.937 734.562 796.375 734.422 797.781 734.422C803.625 734.422 808.031 736.891 811 741.828C816.437 736.891 822.125 734.422 828.062 734.422C833.937 734.422 838.218 736.188 840.906 739.719C843.593 743.312 844.937 749.25 844.937 757.531V783.547H835.562V757.859C835.562 749.734 833.609 744.875 829.703 743.281C828.39 742.75 826.859 742.484 825.109 742.484C820.921 742.484 817.078 743.984 813.578 746.984V783.547H804.203V757.484C804.203 751.922 803.375 748.016 801.718 745.766C800.125 743.578 797.265 742.484 793.14 742.484C789.046 742.484 785.171 744.062 781.515 747.219ZM856.843 759.266C856.843 751.672 859.265 745.516 864.109 740.797C868.64 736.391 874.25 734.188 880.937 734.188C887.5 734.188 892.984 736.391 897.39 740.797C902.078 745.484 904.421 751.641 904.421 759.266C904.421 766.859 902.062 772.984 897.343 777.641C892.875 782.078 887.39 784.297 880.89 784.297C874.296 784.297 868.703 782.078 864.109 777.641C859.265 772.984 856.843 766.859 856.843 759.266ZM866.593 759.266C866.593 767.266 869.156 772.703 874.281 775.578C876.093 776.578 878.265 777.078 880.796 777.078C883.328 777.078 885.468 776.578 887.218 775.578C888.968 774.547 890.406 773.203 891.531 771.547C893.625 768.359 894.671 764.266 894.671 759.266C894.671 751.328 892.156 745.891 887.125 742.953C885.375 741.922 883.281 741.406 880.843 741.406C878.406 741.406 876.281 741.922 874.468 742.953C872.687 743.953 871.218 745.281 870.062 746.938C867.75 750.188 866.593 754.297 866.593 759.266ZM915.906 718.297H925.281V775.297H953.218V783.547H915.906V718.297ZM960.906 759.266C960.906 751.672 963.328 745.516 968.171 740.797C972.703 736.391 978.312 734.188 985 734.188C991.562 734.188 997.046 736.391 1001.45 740.797C1006.14 745.484 1008.48 751.641 1008.48 759.266C1008.48 766.859 1006.12 772.984 1001.41 777.641C996.937 782.078 991.453 784.297 984.953 784.297C978.359 784.297 972.765 782.078 968.171 777.641C963.328 772.984 960.906 766.859 960.906 759.266ZM970.656 759.266C970.656 767.266 973.218 772.703 978.343 775.578C980.156 776.578 982.328 777.078 984.859 777.078C987.39 777.078 989.531 776.578 991.281 775.578C993.031 774.547 994.468 773.203 995.593 771.547C997.687 768.359 998.734 764.266 998.734 759.266C998.734 751.328 996.218 745.891 991.187 742.953C989.437 741.922 987.343 741.406 984.906 741.406C982.468 741.406 980.343 741.922 978.531 742.953C976.75 743.953 975.281 745.281 974.125 746.938C971.812 750.188 970.656 754.297 970.656 759.266ZM1047.53 802.016C1044.81 802.703 1041.31 803.047 1037.03 803.047C1032.78 803.047 1029.67 802.734 1027.7 802.109V793.766C1030.17 794.828 1033.19 795.359 1036.75 795.359C1040.34 795.391 1042.98 795.156 1044.67 794.656C1046.36 794.156 1047.69 793.344 1048.66 792.219C1050.41 790.188 1051.28 786.516 1051.28 781.203V778.719C1048.91 781.094 1045.78 782.75 1041.91 783.688C1040.34 784.062 1038.78 784.25 1037.22 784.25C1035.66 784.25 1034.12 784.078 1032.62 783.734C1031.16 783.391 1029.69 782.844 1028.22 782.094C1026.75 781.312 1025.34 780.312 1024 779.094C1022.66 777.844 1021.47 776.297 1020.44 774.453C1018.12 770.453 1016.97 765.531 1016.97 759.688C1016.91 754.281 1018.47 749.531 1021.66 745.438C1024.41 741.875 1028.19 739.109 1033 737.141C1037.37 735.328 1042.11 734.422 1047.2 734.422C1052.3 734.422 1056.78 734.672 1060.66 735.172V781.203C1060.66 792.891 1056.28 799.828 1047.53 802.016ZM1051.28 742.016C1049.28 741.766 1047.31 741.641 1045.37 741.641C1043.44 741.641 1041.27 742 1038.86 742.719C1036.45 743.438 1034.34 744.531 1032.53 746C1028.56 749.219 1026.58 753.781 1026.58 759.688C1026.58 766.094 1028.12 770.766 1031.22 773.703C1033.53 775.922 1036.36 777.031 1039.7 777.031C1043.73 777.031 1047.12 775.609 1049.87 772.766C1050.53 772.047 1051 771.406 1051.28 770.844V742.016Z"/>
</mask>
<path d="M660.625 718.297H679.14C691.484 718.297 699.437 721.953 703 729.266C704.281 731.953 704.921 735.141 704.921 738.828C704.921 742.516 704.265 745.672 702.953 748.297C701.64 750.922 699.875 753.078 697.656 754.766C693.343 758.016 687.578 759.641 680.359 759.641H670V783.547H660.625V718.297ZM678.531 752.141C684.187 752.141 688.375 751.047 691.093 748.859C693.812 746.672 695.171 743.266 695.171 738.641C695.171 732.484 692.312 728.516 686.593 726.734C684.593 726.109 682.171 725.797 679.328 725.797H670V752.141H678.531ZM712.843 759.266C712.843 751.672 715.265 745.516 720.109 740.797C724.64 736.391 730.25 734.188 736.937 734.188C743.5 734.188 748.984 736.391 753.39 740.797C758.078 745.484 760.421 751.641 760.421 759.266C760.421 766.859 758.062 772.984 753.343 777.641C748.875 782.078 743.39 784.297 736.89 784.297C730.296 784.297 724.703 782.078 720.109 777.641C715.265 772.984 712.843 766.859 712.843 759.266ZM722.593 759.266C722.593 767.266 725.156 772.703 730.281 775.578C732.093 776.578 734.265 777.078 736.796 777.078C739.328 777.078 741.468 776.578 743.218 775.578C744.968 774.547 746.406 773.203 747.531 771.547C749.625 768.359 750.671 764.266 750.671 759.266C750.671 751.328 748.156 745.891 743.125 742.953C741.375 741.922 739.281 741.406 736.843 741.406C734.406 741.406 732.281 741.922 730.468 742.953C728.687 743.953 727.218 745.281 726.062 746.938C723.75 750.188 722.593 754.297 722.593 759.266ZM781.515 747.219L781.562 783.547H772.187V735.172H780.812L781.468 740.469C784.906 737.594 788.906 735.719 793.468 734.844C794.937 734.562 796.375 734.422 797.781 734.422C803.625 734.422 808.031 736.891 811 741.828C816.437 736.891 822.125 734.422 828.062 734.422C833.937 734.422 838.218 736.188 840.906 739.719C843.593 743.312 844.937 749.25 844.937 757.531V783.547H835.562V757.859C835.562 749.734 833.609 744.875 829.703 743.281C828.39 742.75 826.859 742.484 825.109 742.484C820.921 742.484 817.078 743.984 813.578 746.984V783.547H804.203V757.484C804.203 751.922 803.375 748.016 801.718 745.766C800.125 743.578 797.265 742.484 793.14 742.484C789.046 742.484 785.171 744.062 781.515 747.219ZM856.843 759.266C856.843 751.672 859.265 745.516 864.109 740.797C868.64 736.391 874.25 734.188 880.937 734.188C887.5 734.188 892.984 736.391 897.39 740.797C902.078 745.484 904.421 751.641 904.421 759.266C904.421 766.859 902.062 772.984 897.343 777.641C892.875 782.078 887.39 784.297 880.89 784.297C874.296 784.297 868.703 782.078 864.109 777.641C859.265 772.984 856.843 766.859 856.843 759.266ZM866.593 759.266C866.593 767.266 869.156 772.703 874.281 775.578C876.093 776.578 878.265 777.078 880.796 777.078C883.328 777.078 885.468 776.578 887.218 775.578C888.968 774.547 890.406 773.203 891.531 771.547C893.625 768.359 894.671 764.266 894.671 759.266C894.671 751.328 892.156 745.891 887.125 742.953C885.375 741.922 883.281 741.406 880.843 741.406C878.406 741.406 876.281 741.922 874.468 742.953C872.687 743.953 871.218 745.281 870.062 746.938C867.75 750.188 866.593 754.297 866.593 759.266ZM915.906 718.297H925.281V775.297H953.218V783.547H915.906V718.297ZM960.906 759.266C960.906 751.672 963.328 745.516 968.171 740.797C972.703 736.391 978.312 734.188 985 734.188C991.562 734.188 997.046 736.391 1001.45 740.797C1006.14 745.484 1008.48 751.641 1008.48 759.266C1008.48 766.859 1006.12 772.984 1001.41 777.641C996.937 782.078 991.453 784.297 984.953 784.297C978.359 784.297 972.765 782.078 968.171 777.641C963.328 772.984 960.906 766.859 960.906 759.266ZM970.656 759.266C970.656 767.266 973.218 772.703 978.343 775.578C980.156 776.578 982.328 777.078 984.859 777.078C987.39 777.078 989.531 776.578 991.281 775.578C993.031 774.547 994.468 773.203 995.593 771.547C997.687 768.359 998.734 764.266 998.734 759.266C998.734 751.328 996.218 745.891 991.187 742.953C989.437 741.922 987.343 741.406 984.906 741.406C982.468 741.406 980.343 741.922 978.531 742.953C976.75 743.953 975.281 745.281 974.125 746.938C971.812 750.188 970.656 754.297 970.656 759.266ZM1047.53 802.016C1044.81 802.703 1041.31 803.047 1037.03 803.047C1032.78 803.047 1029.67 802.734 1027.7 802.109V793.766C1030.17 794.828 1033.19 795.359 1036.75 795.359C1040.34 795.391 1042.98 795.156 1044.67 794.656C1046.36 794.156 1047.69 793.344 1048.66 792.219C1050.41 790.188 1051.28 786.516 1051.28 781.203V778.719C1048.91 781.094 1045.78 782.75 1041.91 783.688C1040.34 784.062 1038.78 784.25 1037.22 784.25C1035.66 784.25 1034.12 784.078 1032.62 783.734C1031.16 783.391 1029.69 782.844 1028.22 782.094C1026.75 781.312 1025.34 780.312 1024 779.094C1022.66 777.844 1021.47 776.297 1020.44 774.453C1018.12 770.453 1016.97 765.531 1016.97 759.688C1016.91 754.281 1018.47 749.531 1021.66 745.438C1024.41 741.875 1028.19 739.109 1033 737.141C1037.37 735.328 1042.11 734.422 1047.2 734.422C1052.3 734.422 1056.78 734.672 1060.66 735.172V781.203C1060.66 792.891 1056.28 799.828 1047.53 802.016ZM1051.28 742.016C1049.28 741.766 1047.31 741.641 1045.37 741.641C1043.44 741.641 1041.27 742 1038.86 742.719C1036.45 743.438 1034.34 744.531 1032.53 746C1028.56 749.219 1026.58 753.781 1026.58 759.688C1026.58 766.094 1028.12 770.766 1031.22 773.703C1033.53 775.922 1036.36 777.031 1039.7 777.031C1043.73 777.031 1047.12 775.609 1049.87 772.766C1050.53 772.047 1051 771.406 1051.28 770.844V742.016Z" fill="black"/>
<path d="M660.625 718.297V717.297H659.625V718.297H660.625ZM703 729.266L703.902 728.835L703.899 728.828L703 729.266ZM697.656 754.766L698.258 755.564L698.261 755.562L697.656 754.766ZM670 759.641V758.641H669V759.641H670ZM670 783.547V784.547H671V783.547H670ZM660.625 783.547H659.625V784.547H660.625V783.547ZM686.593 726.734L686.295 727.689L686.296 727.689L686.593 726.734ZM670 725.797V724.797H669V725.797H670ZM670 752.141H669V753.141H670V752.141ZM660.625 719.297H679.14V717.297H660.625V719.297ZM679.14 719.297C691.322 719.297 698.784 722.897 702.101 729.704L703.899 728.828C700.09 721.01 691.645 717.297 679.14 717.297V719.297ZM702.097 729.696C703.301 732.221 703.921 735.255 703.921 738.828H705.921C705.921 735.026 705.261 731.685 703.902 728.835L702.097 729.696ZM703.921 738.828C703.921 742.399 703.286 745.395 702.058 747.85L703.847 748.744C705.244 745.949 705.921 742.632 705.921 738.828H703.921ZM702.058 747.85C700.81 750.345 699.141 752.38 697.05 753.97L698.261 755.562C700.608 753.777 702.47 751.498 703.847 748.744L702.058 747.85ZM697.054 753.967C692.965 757.048 687.433 758.641 680.359 758.641V760.641C687.722 760.641 693.721 758.983 698.258 755.564L697.054 753.967ZM680.359 758.641H670V760.641H680.359V758.641ZM669 759.641V783.547H671V759.641H669ZM670 782.547H660.625V784.547H670V782.547ZM661.625 783.547V718.297H659.625V783.547H661.625ZM678.531 753.141C684.284 753.141 688.743 752.034 691.72 749.638L690.466 748.08C688.006 750.06 684.09 751.141 678.531 751.141V753.141ZM691.72 749.638C694.746 747.204 696.171 743.463 696.171 738.641H694.171C694.171 743.069 692.878 746.14 690.466 748.08L691.72 749.638ZM696.171 738.641C696.171 735.407 695.419 732.656 693.838 730.462C692.256 728.266 689.909 726.72 686.891 725.78L686.296 727.689C688.996 728.53 690.939 729.859 692.216 731.631C693.494 733.406 694.171 735.718 694.171 738.641H696.171ZM686.892 725.78C684.767 725.116 682.239 724.797 679.328 724.797V726.797C682.104 726.797 684.419 727.103 686.295 727.689L686.892 725.78ZM679.328 724.797H670V726.797H679.328V724.797ZM669 725.797V752.141H671V725.797H669ZM670 753.141H678.531V751.141H670V753.141ZM720.109 740.797L719.412 740.08L719.411 740.081L720.109 740.797ZM753.343 777.641L752.641 776.929L752.639 776.931L753.343 777.641ZM720.109 777.641L720.804 776.921L720.802 776.92L720.109 777.641ZM730.281 775.578L729.791 776.45L729.798 776.454L730.281 775.578ZM743.218 775.578L743.714 776.446L743.726 776.44L743.218 775.578ZM747.531 771.547L748.358 772.109L748.362 772.102L748.367 772.096L747.531 771.547ZM743.125 742.953L742.617 743.815L742.62 743.817L743.125 742.953ZM730.468 742.953L730.958 743.825L730.963 743.822L730.468 742.953ZM726.062 746.938L726.877 747.517L726.882 747.51L726.062 746.938ZM713.843 759.266C713.843 751.905 716.181 746.02 720.807 741.513L719.411 740.081C714.35 745.012 711.843 751.438 711.843 759.266H713.843ZM720.806 741.514C725.139 737.3 730.493 735.188 736.937 735.188V733.188C730.006 733.188 724.141 735.481 719.412 740.08L720.806 741.514ZM736.937 735.188C743.25 735.188 748.475 737.296 752.683 741.504L754.097 740.09C749.493 735.485 743.749 733.188 736.937 733.188V735.188ZM752.683 741.504C757.155 745.975 759.421 751.863 759.421 759.266H761.421C761.421 751.419 759.001 744.993 754.097 740.09L752.683 741.504ZM759.421 759.266C759.421 766.634 757.141 772.488 752.641 776.929L754.046 778.352C758.983 773.48 761.421 767.085 761.421 759.266H759.421ZM752.639 776.931C748.364 781.176 743.136 783.297 736.89 783.297V785.297C743.645 785.297 749.385 782.98 754.048 778.35L752.639 776.931ZM736.89 783.297C730.546 783.297 725.204 781.172 720.804 776.921L719.414 778.36C724.201 782.984 730.046 785.297 736.89 785.297V783.297ZM720.802 776.92C716.181 772.477 713.843 766.626 713.843 759.266H711.843C711.843 767.093 714.35 773.491 719.416 778.362L720.802 776.92ZM721.593 759.266C721.593 767.479 724.24 773.336 729.792 776.45L730.77 774.706C726.072 772.07 723.593 767.052 723.593 759.266H721.593ZM729.798 776.454C731.788 777.552 734.133 778.078 736.796 778.078V776.078C734.397 776.078 732.399 775.605 730.764 774.703L729.798 776.454ZM736.796 778.078C739.458 778.078 741.779 777.552 743.714 776.446L742.722 774.71C741.157 775.604 739.197 776.078 736.796 776.078V778.078ZM743.726 776.44C745.601 775.334 747.149 773.889 748.358 772.109L746.704 770.985C745.663 772.517 744.335 773.759 742.711 774.717L743.726 776.44ZM748.367 772.096C750.596 768.702 751.671 764.401 751.671 759.266H749.671C749.671 764.13 748.653 768.017 746.695 770.998L748.367 772.096ZM751.671 759.266C751.671 751.118 749.075 745.269 743.629 742.09L742.62 743.817C747.237 746.512 749.671 751.538 749.671 759.266H751.671ZM743.632 742.092C741.7 740.953 739.424 740.406 736.843 740.406V742.406C739.138 742.406 741.049 742.891 742.617 743.815L743.632 742.092ZM736.843 740.406C734.262 740.406 731.961 740.953 729.974 742.084L730.963 743.822C732.601 742.89 734.55 742.406 736.843 742.406V740.406ZM729.979 742.081C728.068 743.154 726.485 744.584 725.242 746.365L726.882 747.51C727.951 745.979 729.306 744.752 730.958 743.825L729.979 742.081ZM725.247 746.358C722.787 749.815 721.593 754.141 721.593 759.266H723.593C723.593 754.453 724.712 750.56 726.877 747.517L725.247 746.358ZM781.515 747.219L780.862 746.462L780.515 746.761L780.515 747.22L781.515 747.219ZM781.562 783.547V784.547H782.563L782.562 783.546L781.562 783.547ZM772.187 783.547H771.187V784.547H772.187V783.547ZM772.187 735.172V734.172H771.187V735.172H772.187ZM780.812 735.172L781.804 735.049L781.696 734.172H780.812V735.172ZM781.468 740.469L780.476 740.592L780.702 742.414L782.11 741.236L781.468 740.469ZM793.468 734.844L793.28 733.862L793.28 733.862L793.468 734.844ZM811 741.828L810.142 742.343L810.77 743.387L811.672 742.568L811 741.828ZM840.906 739.719L841.707 739.12L841.702 739.113L840.906 739.719ZM844.937 783.547V784.547H845.937V783.547H844.937ZM835.562 783.547H834.562V784.547H835.562V783.547ZM829.703 743.281L830.08 742.355L830.078 742.354L829.703 743.281ZM813.578 746.984L812.927 746.225L812.578 746.524V746.984H813.578ZM813.578 783.547V784.547H814.578V783.547H813.578ZM804.203 783.547H803.203V784.547H804.203V783.547ZM801.718 745.766L800.91 746.354L800.913 746.358L801.718 745.766ZM780.515 747.22L780.562 783.548L782.562 783.546L782.515 747.217L780.515 747.22ZM781.562 782.547H772.187V784.547H781.562V782.547ZM773.187 783.547V735.172H771.187V783.547H773.187ZM772.187 736.172H780.812V734.172H772.187V736.172ZM779.82 735.295L780.476 740.592L782.461 740.346L781.804 735.049L779.82 735.295ZM782.11 741.236C785.412 738.474 789.255 736.67 793.657 735.826L793.28 733.862C788.557 734.767 784.399 736.714 780.827 739.702L782.11 741.236ZM793.656 735.826C795.067 735.556 796.441 735.422 797.781 735.422V733.422C796.308 733.422 794.807 733.569 793.28 733.862L793.656 735.826ZM797.781 735.422C803.28 735.422 807.358 737.712 810.142 742.343L811.857 741.313C808.704 736.069 803.969 733.422 797.781 733.422V735.422ZM811.672 742.568C816.971 737.757 822.428 735.422 828.062 735.422V733.422C821.821 733.422 815.903 736.025 810.327 741.088L811.672 742.568ZM828.062 735.422C833.734 735.422 837.669 737.118 840.11 740.324L841.702 739.113C838.767 735.257 834.14 733.422 828.062 733.422V735.422ZM840.105 740.318C842.593 743.644 843.937 749.307 843.937 757.531H845.937C845.937 749.193 844.594 742.981 841.707 739.12L840.105 740.318ZM843.937 757.531V783.547H845.937V757.531H843.937ZM844.937 782.547H835.562V784.547H844.937V782.547ZM836.562 783.547V757.859H834.562V783.547H836.562ZM836.562 757.859C836.562 753.732 836.068 750.343 835.025 747.748C833.973 745.132 832.342 743.278 830.08 742.355L829.325 744.207C830.97 744.878 832.268 746.251 833.169 748.494C834.079 750.758 834.562 753.862 834.562 757.859H836.562ZM830.078 742.354C828.622 741.765 826.958 741.484 825.109 741.484V743.484C826.76 743.484 828.159 743.735 829.327 744.208L830.078 742.354ZM825.109 741.484C820.658 741.484 816.588 743.087 812.927 746.225L814.228 747.744C817.567 744.882 821.185 743.484 825.109 743.484V741.484ZM812.578 746.984V783.547H814.578V746.984H812.578ZM813.578 782.547H804.203V784.547H813.578V782.547ZM805.203 783.547V757.484H803.203V783.547H805.203ZM805.203 757.484C805.203 751.885 804.381 747.697 802.524 745.173L800.913 746.358C802.368 748.335 803.203 751.958 803.203 757.484H805.203ZM802.526 745.177C800.662 742.617 797.411 741.484 793.14 741.484V743.484C797.119 743.484 799.587 744.539 800.91 746.354L802.526 745.177ZM793.14 741.484C788.765 741.484 784.665 743.178 780.862 746.462L782.169 747.976C785.678 744.947 789.328 743.484 793.14 743.484V741.484ZM864.109 740.797L863.412 740.08L863.411 740.081L864.109 740.797ZM897.343 777.641L896.641 776.929L896.639 776.931L897.343 777.641ZM864.109 777.641L864.804 776.921L864.802 776.92L864.109 777.641ZM874.281 775.578L873.791 776.45L873.798 776.454L874.281 775.578ZM887.218 775.578L887.714 776.446L887.726 776.44L887.218 775.578ZM891.531 771.547L892.358 772.109L892.362 772.102L892.367 772.096L891.531 771.547ZM887.125 742.953L886.617 743.815L886.62 743.817L887.125 742.953ZM874.468 742.953L874.958 743.825L874.963 743.822L874.468 742.953ZM870.062 746.938L870.877 747.517L870.882 747.51L870.062 746.938ZM857.843 759.266C857.843 751.905 860.181 746.02 864.807 741.513L863.411 740.081C858.35 745.012 855.843 751.438 855.843 759.266H857.843ZM864.806 741.514C869.139 737.3 874.493 735.188 880.937 735.188V733.188C874.006 733.188 868.141 735.481 863.412 740.08L864.806 741.514ZM880.937 735.188C887.25 735.188 892.475 737.296 896.683 741.504L898.097 740.09C893.493 735.485 887.749 733.188 880.937 733.188V735.188ZM896.683 741.504C901.155 745.975 903.421 751.863 903.421 759.266H905.421C905.421 751.419 903.001 744.993 898.097 740.09L896.683 741.504ZM903.421 759.266C903.421 766.634 901.141 772.488 896.641 776.929L898.046 778.352C902.983 773.48 905.421 767.085 905.421 759.266H903.421ZM896.639 776.931C892.364 781.176 887.136 783.297 880.89 783.297V785.297C887.645 785.297 893.385 782.98 898.048 778.35L896.639 776.931ZM880.89 783.297C874.546 783.297 869.204 781.172 864.804 776.921L863.414 778.36C868.201 782.984 874.046 785.297 880.89 785.297V783.297ZM864.802 776.92C860.181 772.477 857.843 766.626 857.843 759.266H855.843C855.843 767.093 858.35 773.491 863.416 778.362L864.802 776.92ZM865.593 759.266C865.593 767.479 868.24 773.336 873.792 776.45L874.77 774.706C870.072 772.07 867.593 767.052 867.593 759.266H865.593ZM873.798 776.454C875.788 777.552 878.133 778.078 880.796 778.078V776.078C878.397 776.078 876.399 775.605 874.764 774.703L873.798 776.454ZM880.796 778.078C883.458 778.078 885.779 777.552 887.714 776.446L886.722 774.71C885.157 775.604 883.197 776.078 880.796 776.078V778.078ZM887.726 776.44C889.601 775.334 891.149 773.889 892.358 772.109L890.704 770.985C889.663 772.517 888.335 773.759 886.711 774.717L887.726 776.44ZM892.367 772.096C894.596 768.702 895.671 764.401 895.671 759.266H893.671C893.671 764.13 892.653 768.017 890.695 770.998L892.367 772.096ZM895.671 759.266C895.671 751.118 893.075 745.269 887.629 742.09L886.62 743.817C891.237 746.512 893.671 751.538 893.671 759.266H895.671ZM887.632 742.092C885.7 740.953 883.424 740.406 880.843 740.406V742.406C883.138 742.406 885.049 742.891 886.617 743.815L887.632 742.092ZM880.843 740.406C878.262 740.406 875.961 740.953 873.974 742.084L874.963 743.822C876.601 742.89 878.55 742.406 880.843 742.406V740.406ZM873.979 742.081C872.068 743.154 870.485 744.584 869.242 746.365L870.882 747.51C871.951 745.979 873.306 744.752 874.958 743.825L873.979 742.081ZM869.247 746.358C866.787 749.815 865.593 754.141 865.593 759.266H867.593C867.593 754.453 868.712 750.56 870.877 747.517L869.247 746.358ZM915.906 718.297V717.297H914.906V718.297H915.906ZM925.281 718.297H926.281V717.297H925.281V718.297ZM925.281 775.297H924.281V776.297H925.281V775.297ZM953.218 775.297H954.218V774.297H953.218V775.297ZM953.218 783.547V784.547H954.218V783.547H953.218ZM915.906 783.547H914.906V784.547H915.906V783.547ZM915.906 719.297H925.281V717.297H915.906V719.297ZM924.281 718.297V775.297H926.281V718.297H924.281ZM925.281 776.297H953.218V774.297H925.281V776.297ZM952.218 775.297V783.547H954.218V775.297H952.218ZM953.218 782.547H915.906V784.547H953.218V782.547ZM916.906 783.547V718.297H914.906V783.547H916.906ZM968.171 740.797L967.474 740.08L967.474 740.081L968.171 740.797ZM1001.41 777.641L1000.7 776.929L1000.7 776.931L1001.41 777.641ZM968.171 777.641L968.866 776.921L968.864 776.92L968.171 777.641ZM978.343 775.578L977.854 776.45L977.86 776.454L978.343 775.578ZM991.281 775.578L991.777 776.446L991.788 776.44L991.281 775.578ZM995.593 771.547L996.42 772.109L996.425 772.102L996.429 772.096L995.593 771.547ZM991.187 742.953L990.679 743.815L990.683 743.817L991.187 742.953ZM978.531 742.953L979.02 743.825L979.025 743.822L978.531 742.953ZM974.125 746.938L974.939 747.517L974.944 747.51L974.125 746.938ZM961.906 759.266C961.906 751.905 964.243 746.02 968.869 741.513L967.474 740.081C962.412 745.012 959.906 751.438 959.906 759.266H961.906ZM968.869 741.514C973.201 737.3 978.556 735.188 985 735.188V733.188C978.068 733.188 972.204 735.481 967.474 740.08L968.869 741.514ZM985 735.188C991.312 735.188 996.538 737.296 1000.75 741.504L1002.16 740.09C997.555 735.485 991.812 733.188 985 733.188V735.188ZM1000.75 741.504C1005.22 745.975 1007.48 751.863 1007.48 759.266H1009.48C1009.48 751.419 1007.06 744.993 1002.16 740.09L1000.75 741.504ZM1007.48 759.266C1007.48 766.634 1005.2 772.488 1000.7 776.929L1002.11 778.352C1007.05 773.48 1009.48 767.085 1009.48 759.266H1007.48ZM1000.7 776.931C996.426 781.176 991.198 783.297 984.953 783.297V785.297C991.707 785.297 997.448 782.98 1002.11 778.35L1000.7 776.931ZM984.953 783.297C978.609 783.297 973.267 781.172 968.866 776.921L967.477 778.36C972.263 782.984 978.109 785.297 984.953 785.297V783.297ZM968.864 776.92C964.243 772.477 961.906 766.626 961.906 759.266H959.906C959.906 767.093 962.412 773.491 967.478 778.362L968.864 776.92ZM969.656 759.266C969.656 767.479 972.302 773.336 977.854 776.45L978.833 774.706C974.134 772.07 971.656 767.052 971.656 759.266H969.656ZM977.86 776.454C979.85 777.552 982.196 778.078 984.859 778.078V776.078C982.459 776.078 980.461 775.605 978.826 774.703L977.86 776.454ZM984.859 778.078C987.52 778.078 989.842 777.552 991.777 776.446L990.785 774.71C989.22 775.604 987.26 776.078 984.859 776.078V778.078ZM991.788 776.44C993.664 775.334 995.211 773.889 996.42 772.109L994.766 770.985C993.725 772.517 992.398 773.759 990.773 774.717L991.788 776.44ZM996.429 772.096C998.659 768.702 999.734 764.401 999.734 759.266H997.734C997.734 764.13 996.715 768.017 994.757 770.998L996.429 772.096ZM999.734 759.266C999.734 751.118 997.137 745.269 991.691 742.09L990.683 743.817C995.299 746.512 997.734 751.538 997.734 759.266H999.734ZM991.695 742.092C989.763 740.953 987.486 740.406 984.906 740.406V742.406C987.201 742.406 989.111 742.891 990.679 743.815L991.695 742.092ZM984.906 740.406C982.324 740.406 980.023 740.953 978.036 742.084L979.025 743.822C980.663 742.89 982.612 742.406 984.906 742.406V740.406ZM978.041 742.081C976.13 743.154 974.548 744.584 973.305 746.365L974.944 747.51C976.014 745.979 977.369 744.752 979.02 743.825L978.041 742.081ZM973.31 746.358C970.85 749.815 969.656 754.141 969.656 759.266H971.656C971.656 754.453 972.774 750.56 974.939 747.517L973.31 746.358ZM1047.53 802.016L1047.29 801.045L1047.29 801.046L1047.53 802.016ZM1027.7 802.109H1026.7V802.841L1027.4 803.062L1027.7 802.109ZM1027.7 793.766L1028.1 792.847L1026.7 792.247V793.766H1027.7ZM1036.75 795.359L1036.76 794.359H1036.75V795.359ZM1048.66 792.219L1047.9 791.566L1047.9 791.566L1048.66 792.219ZM1051.28 778.719H1052.28V776.305L1050.57 778.012L1051.28 778.719ZM1041.91 783.688L1042.14 784.66L1042.14 784.659L1041.91 783.688ZM1032.62 783.734L1032.4 784.708L1032.4 784.709L1032.62 783.734ZM1028.22 782.094L1027.75 782.977L1027.76 782.981L1027.76 782.984L1028.22 782.094ZM1024 779.094L1023.32 779.826L1023.33 779.834L1024 779.094ZM1020.44 774.453L1021.31 773.965L1021.31 773.959L1021.3 773.953L1020.44 774.453ZM1016.97 759.688H1017.97L1017.97 759.676L1016.97 759.688ZM1021.66 745.438L1022.44 746.052L1022.45 746.049L1021.66 745.438ZM1033 737.141L1033.38 738.066L1033.38 738.064L1033 737.141ZM1060.66 735.172H1061.66V734.293L1060.78 734.18L1060.66 735.172ZM1051.28 742.016H1052.28V741.133L1051.4 741.023L1051.28 742.016ZM1032.53 746L1031.9 745.223L1031.9 745.223L1032.53 746ZM1031.22 773.703L1031.91 772.982L1031.91 772.978L1031.22 773.703ZM1049.87 772.766L1050.59 773.461L1050.6 773.45L1050.61 773.44L1049.87 772.766ZM1051.28 770.844L1052.18 771.291L1052.28 771.08V770.844H1051.28ZM1047.29 801.046C1044.68 801.706 1041.27 802.047 1037.03 802.047V804.047C1041.36 804.047 1044.95 803.701 1047.78 802.985L1047.29 801.046ZM1037.03 802.047C1032.8 802.047 1029.82 801.732 1028.01 801.156L1027.4 803.062C1029.52 803.737 1032.76 804.047 1037.03 804.047V802.047ZM1028.7 802.109V793.766H1026.7V802.109H1028.7ZM1027.31 794.684C1029.93 795.815 1033.09 796.359 1036.75 796.359V794.359C1033.28 794.359 1030.41 793.841 1028.1 792.847L1027.31 794.684ZM1036.74 796.359C1040.35 796.391 1043.12 796.159 1044.96 795.615L1044.39 793.697C1042.85 794.153 1040.33 794.391 1036.76 794.359L1036.74 796.359ZM1044.96 795.615C1046.79 795.071 1048.3 794.167 1049.41 792.871L1047.9 791.566C1047.08 792.521 1045.93 793.242 1044.39 793.697L1044.96 795.615ZM1049.41 792.871C1051.41 790.549 1052.28 786.554 1052.28 781.203H1050.28C1050.28 786.477 1049.4 789.826 1047.9 791.566L1049.41 792.871ZM1052.28 781.203V778.719H1050.28V781.203H1052.28ZM1050.57 778.012C1048.35 780.234 1045.4 781.813 1041.67 782.716L1042.14 784.659C1046.16 783.687 1049.46 781.953 1051.99 779.426L1050.57 778.012ZM1041.67 782.715C1040.18 783.072 1038.7 783.25 1037.22 783.25V785.25C1038.86 785.25 1040.5 785.053 1042.14 784.66L1041.67 782.715ZM1037.22 783.25C1035.73 783.25 1034.27 783.086 1032.85 782.76L1032.4 784.709C1033.98 785.07 1035.58 785.25 1037.22 785.25V783.25ZM1032.85 782.761C1031.47 782.437 1030.08 781.92 1028.67 781.203L1027.76 782.984C1029.3 783.768 1030.84 784.344 1032.4 784.708L1032.85 782.761ZM1028.69 781.211C1027.3 780.472 1025.96 779.521 1024.67 778.353L1023.33 779.834C1024.73 781.104 1026.2 782.153 1027.75 782.977L1028.69 781.211ZM1024.68 778.362C1023.42 777.192 1022.3 775.731 1021.31 773.965L1019.56 774.941C1020.64 776.862 1021.89 778.495 1023.32 779.826L1024.68 778.362ZM1021.3 773.953C1019.1 770.14 1017.97 765.401 1017.97 759.688H1015.97C1015.97 765.661 1017.15 770.766 1019.57 774.954L1021.3 773.953ZM1017.97 759.676C1017.91 754.486 1019.4 749.959 1022.44 746.052L1020.87 744.823C1017.53 749.104 1015.9 754.077 1015.97 759.699L1017.97 759.676ZM1022.45 746.049C1025.07 742.646 1028.7 739.979 1033.38 738.066L1032.62 736.215C1027.67 738.24 1023.74 741.104 1020.86 744.826L1022.45 746.049ZM1033.38 738.064C1037.63 736.306 1042.23 735.422 1047.2 735.422V733.422C1041.99 733.422 1037.12 734.35 1032.62 736.217L1033.38 738.064ZM1047.2 735.422C1052.27 735.422 1056.71 735.67 1060.53 736.164L1060.78 734.18C1056.86 733.673 1052.33 733.422 1047.2 733.422V735.422ZM1059.66 735.172V781.203H1061.66V735.172H1059.66ZM1059.66 781.203C1059.66 786.934 1058.58 791.384 1056.53 794.638C1054.49 797.867 1051.44 800.007 1047.29 801.045L1047.77 802.986C1052.37 801.836 1055.88 799.414 1058.22 795.705C1060.54 792.023 1061.66 787.159 1061.66 781.203H1059.66ZM1051.4 741.023C1049.37 740.768 1047.36 740.641 1045.37 740.641V742.641C1047.27 742.641 1049.2 742.763 1051.16 743.008L1051.4 741.023ZM1045.37 740.641C1043.32 740.641 1041.05 741.022 1038.57 741.761L1039.15 743.677C1041.48 742.978 1043.56 742.641 1045.37 742.641V740.641ZM1038.57 741.761C1036.05 742.514 1033.82 743.666 1031.9 745.223L1033.16 746.777C1034.86 745.397 1036.85 744.361 1039.15 743.677L1038.57 741.761ZM1031.9 745.223C1027.66 748.663 1025.58 753.532 1025.58 759.688H1027.58C1027.58 754.03 1029.46 749.775 1033.16 746.777L1031.9 745.223ZM1025.58 759.688C1025.58 766.231 1027.16 771.225 1030.53 774.428L1031.91 772.978C1029.09 770.306 1027.58 765.957 1027.58 759.688H1025.58ZM1030.53 774.425C1033.03 776.831 1036.11 778.031 1039.7 778.031V776.031C1036.6 776.031 1034.03 775.013 1031.91 772.982L1030.53 774.425ZM1039.7 778.031C1044 778.031 1047.65 776.504 1050.59 773.461L1049.16 772.07C1046.6 774.715 1043.47 776.031 1039.7 776.031V778.031ZM1050.61 773.44C1051.3 772.686 1051.84 771.968 1052.18 771.291L1050.39 770.397C1050.16 770.844 1049.76 771.408 1049.14 772.091L1050.61 773.44ZM1052.28 770.844V742.016H1050.28V770.844H1052.28Z" fill="black" mask="url(#path-2-outside-1_369_59)"/>
<path d="M471.142 711.116C463.339 722.218 458.788 735.57 458.788 749.933C458.788 788.522 491.635 819.804 532.154 819.804C572.673 819.804 605.52 788.522 605.52 749.933C605.52 711.345 572.673 680.062 532.154 680.062V703.353M532.154 749.933L499.547 718.879" stroke="black" stroke-width="15" stroke-linecap="round" stroke-linejoin="round"/>
</g>
</g>
</g>
</g>
<defs>
<clipPath id="clip0_369_59">
<rect width="1500" height="1500" fill="white"/>
</clipPath>
<clipPath id="clip1_369_59">
<rect width="1001" height="188" fill="white" transform="translate(249 657)"/>
</clipPath>
<clipPath id="clip2_369_59">
<rect width="1001" height="187.549" fill="white" transform="translate(289 657)"/>
</clipPath>
<clipPath id="clip3_369_59">
<rect width="1001" height="187.549" fill="white" transform="translate(289 657)"/>
</clipPath>
</defs>
</svg>
